<svg width="80" height="80" viewBox="0 0 80 80" fill="none" xmlns="http://www.w3.org/2000/svg">
<path d="M79.0111 34.3603L70.5614 24.9639C69.4872 23.77 67.8244 23.3703 66.3248 23.9456C64.8252 24.5208 63.8563 25.9305 63.8563 27.5366V31.455H51.9445C49.5766 31.455 47.3188 31.9358 45.2636 32.8049V16.4263H49.3945C51.0003 16.4263 52.4097 15.4577 52.9852 13.9586C53.5609 12.4588 53.1616 10.795 51.967 9.71938L42.572 1.26969C41.1056 -0.0481176 38.8939 -0.0479615 37.4273 1.27001L28.032 9.72001C26.8381 10.795 26.4388 12.4588 27.0145 13.9586C27.59 15.4577 28.9994 16.4263 30.6052 16.4263H34.7361V24.8102C34.7361 25.4573 35.2608 25.982 35.908 25.982C36.5552 25.982 37.0798 25.4573 37.0798 24.8102V15.2545C37.0798 14.6074 36.5552 14.0827 35.908 14.0827H30.6052C29.647 14.0827 29.2894 13.3447 29.2025 13.1186C29.1155 12.8922 28.8873 12.1034 29.5997 11.462L38.9941 3.01298C39.5675 2.49766 40.4322 2.49766 41.0053 3.01266L50.3995 11.4616C51.1125 12.1036 50.8842 12.8924 50.7973 13.1188C50.7105 13.3449 50.3528 14.0828 49.3947 14.0828H44.0919C43.4447 14.0828 42.92 14.6075 42.92 15.2547V34.0172C40.5181 35.5025 38.5072 37.5614 37.0797 40.0017V29.4974C37.0797 28.8502 36.555 28.3255 35.9078 28.3255C35.2606 28.3255 34.7359 28.8502 34.7359 29.4974V48.0038C32.6811 47.1349 30.4236 46.6541 28.0559 46.6541H16.1441V42.7356C16.1441 41.1294 15.175 39.7198 13.6753 39.1447C12.1756 38.5695 10.5125 38.9695 9.43844 40.1639L0.989065 49.5589C-0.329529 51.025 -0.329685 53.2364 0.989065 54.7027L9.43875 64.0977C10.513 65.292 12.1758 65.6919 13.6756 65.1169C15.1755 64.5417 16.1444 63.1322 16.1444 61.5259V57.1809H28.0563C31.74 57.1809 34.7369 60.1778 34.7369 63.8616V78.5467C34.7369 79.1939 35.2616 79.7186 35.9088 79.7186H44.0919C44.7391 79.7186 45.2638 79.1939 45.2638 78.5467V63.8655C45.2638 63.8644 45.2639 63.8634 45.2639 63.8625V48.6619C45.2639 44.978 48.2609 41.9809 51.9448 41.9809H63.8566V46.3259C63.8566 47.932 64.8255 49.3416 66.3252 49.9169C67.8245 50.4922 69.4877 50.0925 70.562 48.8984L72.6384 46.5892C73.0711 46.108 73.0317 45.367 72.5506 44.9344C72.0694 44.5017 71.3284 44.5409 70.8958 45.0222L68.8195 47.3313C68.1789 48.0434 67.3909 47.8158 67.1647 47.7288C66.9384 47.642 66.2003 47.2844 66.2003 46.3259V40.8091C66.2003 40.1619 65.6756 39.6372 65.0284 39.6372H51.9448C46.9688 39.6372 42.9203 43.6856 42.9203 48.6617V55.2009C41.4928 52.7605 39.482 50.7013 37.08 49.2159V48.6616C37.08 40.4659 43.7483 33.7983 51.9447 33.7983H65.0283C65.6755 33.7983 66.2002 33.2736 66.2002 32.6264V27.5361C66.2002 26.5777 66.9383 26.22 67.1645 26.1333C67.3908 26.0463 68.1786 25.8188 68.8192 26.5306L77.2691 35.9273C77.7839 36.4994 77.7838 37.3631 77.2689 37.9361L74.0222 41.5453C73.5894 42.0264 73.6286 42.7673 74.1098 43.2002C74.5909 43.633 75.332 43.5938 75.7647 43.1127L79.0117 39.503C80.3297 38.0364 80.3295 35.8253 79.0111 34.3603ZM42.9198 63.8616V77.375H37.0803V63.8616C37.0803 58.8856 33.032 54.8374 28.0561 54.8374H14.9725C14.3253 54.8374 13.8006 55.362 13.8006 56.0092V61.5259C13.8006 62.4844 13.0625 62.8419 12.8363 62.9288C12.61 63.0155 11.8219 63.2431 11.1811 62.5306L2.73141 53.1356C2.21625 52.5628 2.21625 51.6989 2.73141 51.1261L11.1811 41.7311C11.8222 41.0186 12.61 41.2463 12.8363 41.333C13.0625 41.4199 13.8006 41.7774 13.8006 42.7358V47.8259C13.8006 48.4731 14.3253 48.9978 14.9725 48.9978H28.0561C36.252 48.9978 42.9198 55.6656 42.9198 63.8616Z" fill="white"/>
</svg>
