<svg width="74" height="75" viewBox="0 0 74 75" fill="none" xmlns="http://www.w3.org/2000/svg">
<path d="M73.2377 34.5C73.1512 33.2486 72.8283 31.9979 72.0621 30.9246L65.9501 22.188C64.7722 20.5046 62.8678 19.5 60.8562 19.5H13.1437C11.132 19.5 9.22773 20.5046 8.04973 22.188L1.93773 30.9246C0.222853 33.4093 0.410853 36.8653 2.42848 39.1278L32.3967 72.4285C34.7561 75.1618 39.2438 75.1665 41.6032 72.4284C41.6032 72.4285 71.5715 39.1278 71.5715 39.1278C72.7477 37.8384 73.2371 36.163 73.2377 34.5ZM63.9018 23.6211C64.116 24.016 70.6568 33.0404 70.4693 33.25H52.7418L46.6055 22H60.8562C62.0525 22 63.1913 22.6055 63.9018 23.6211ZM23.8239 35.75H50.1761L37 69.7869L23.8239 35.75ZM24.105 33.25L30.2417 22H43.7581L49.8948 33.25H24.105ZM10.0981 23.6211C10.8086 22.6055 11.9475 22 13.1437 22H27.3945L21.2581 33.25H3.5306C3.3301 33.0611 9.89735 23.9954 10.0981 23.6211ZM4.28635 37.4554C3.8416 36.9605 3.54598 36.3711 3.3871 35.75H21.1434L34.9121 71.3195C34.6761 71.1598 34.4529 70.9764 34.2547 70.7561L4.28635 37.4554ZM39.7453 70.7561C39.5471 70.9765 39.3238 71.1598 39.0878 71.3195L52.8567 35.75H70.613C70.4541 36.3711 70.1585 36.9605 69.7137 37.4554L39.7453 70.7561Z" fill="white"/>
<path d="M37 13.25C37.6909 13.25 38.25 12.6909 38.25 12V2C38.25 1.30913 37.6909 0.75 37 0.75C36.3091 0.75 35.75 1.30913 35.75 2V12C35.75 12.6909 36.3091 13.25 37 13.25Z" fill="white"/>
<path d="M24.8662 14.1338C26.0246 15.2833 27.7862 13.528 26.6337 12.3662L19.5622 5.29465C19.074 4.8064 18.283 4.8064 17.7946 5.29465C17.3062 5.7829 17.3063 6.5739 17.7946 7.06228L24.8662 14.1338Z" fill="white"/>
<path d="M48.25 14.5C48.5699 14.5 48.8896 14.3779 49.1338 14.1338L56.2053 7.06228C57.3543 5.90478 55.6001 4.14178 54.4376 5.29478L47.3661 12.3663C46.5699 13.1082 47.1804 14.5384 48.25 14.5Z" fill="white"/>
</svg>
