<svg width="72" height="78" viewBox="0 0 72 78" fill="none" xmlns="http://www.w3.org/2000/svg">
<path d="M15.1473 34.5592C15.1123 35.3142 14.472 35.8978 13.717 35.8628C12.962 35.8278 12.3784 35.1875 12.4134 34.4325C12.4484 33.6775 13.0889 33.0939 13.8437 33.1289C14.5987 33.1639 15.1825 33.8042 15.1473 34.5592ZM59.0676 34.4708C58.3139 34.4708 57.6992 35.0855 57.6992 35.8392C57.6992 36.593 58.314 37.2077 59.0676 37.2077C59.8212 37.2077 60.4361 36.593 60.4361 35.8392C60.4361 35.0855 59.8212 34.4708 59.0676 34.4708ZM71.5968 55.6912C71.2445 56.4895 70.6042 57.1022 69.7942 57.4162L65.6879 59.0081C65.3017 59.1578 64.904 59.2287 64.5128 59.2287C63.2051 59.2287 61.9686 58.4367 61.4684 57.1462L61.1457 56.3139L57.9651 57.6411C58.1092 58.5859 57.9456 59.5628 57.4775 60.4141C56.9073 61.4506 55.9632 62.2017 54.819 62.5291C54.8047 62.5331 54.7903 62.5373 54.7761 62.5412C55.114 63.6427 55.0265 64.8701 54.4339 65.9476C53.8682 66.9761 52.9326 67.7237 51.7995 68.0527C51.2387 68.2155 50.6643 68.2651 50.1017 68.2064C50.1317 68.9758 49.9611 69.76 49.5661 70.478C48.9976 71.5114 48.0573 72.2611 46.9181 72.5891C46.2458 72.7826 45.5547 72.8145 44.8897 72.6894C44.8917 73.4098 44.7175 74.1394 44.3479 74.8114C43.7793 75.845 42.7987 76.6212 41.6576 76.9411C41.2634 77.0517 40.8636 77.1064 40.4676 77.1064C39.7259 77.1064 38.9972 76.9145 38.3415 76.538L37.2853 75.9312C36.7145 76.7028 35.9125 77.2697 34.9731 77.5542C34.539 77.6858 34.0959 77.7511 33.6556 77.7511C32.9261 77.7511 32.2045 77.572 31.5451 77.2195C30.5973 76.7125 29.8898 75.9039 29.5029 74.9578C28.3015 75.4386 26.9089 75.3997 25.7018 74.7541C24.8564 74.3017 24.1992 73.6011 23.7922 72.7759C22.5203 73.4283 20.9623 73.4687 19.6129 72.7472C17.9209 71.8422 17.0418 70.0031 17.2708 68.2041C16.55 68.2027 15.8258 68.0291 15.164 67.675C14.107 67.1098 13.3323 66.1633 12.9828 65.0098C12.6333 63.8566 12.7522 62.6392 13.3176 61.582L14.4017 59.5552C14.1629 58.9711 14.0426 58.3397 13.9276 57.7217C13.7222 56.6162 13.5642 55.9322 13.1075 55.7548C12.817 55.642 12.0726 55.3186 10.8009 54.752L10.3956 55.6689C10.0442 56.4636 9.40263 57.0747 8.58872 57.3897C8.20512 57.5381 7.80559 57.6122 7.40716 57.6122C6.96028 57.6122 6.5145 57.5191 6.0945 57.3333L2.06638 55.553C1.27169 55.2019 0.660595 54.5602 0.345595 53.7464C0.0304386 52.9325 0.0504384 52.0466 0.401688 51.2517L9.65012 30.3269C10.0014 29.5322 10.6431 28.9211 11.4568 28.6061C12.2708 28.2908 13.1567 28.3108 13.9514 28.6623L17.9795 30.4427C19.624 31.1695 20.3709 33.0991 19.644 34.7437L18.9884 36.227L21.5247 37.3972C21.555 37.4112 21.5848 37.4266 21.6139 37.443C23.022 38.235 24.5103 37.8869 26.3951 37.4453C28.8873 36.8614 31.952 36.1439 35.5331 38.2261C40.4811 35.1922 44.2809 36.7414 47.0884 37.8891C49.1464 38.7305 50.3704 39.1759 51.5872 38.543L53.7975 37.3598L53.1989 35.8156C52.549 34.1392 53.3842 32.2462 55.0606 31.5961L59.1672 30.0042C60.8436 29.3545 62.7365 30.1894 63.3867 31.8659V31.8661L71.6561 53.1969C71.9703 54.0069 71.9492 54.8928 71.5968 55.6912ZM17.3573 33.7333C17.524 33.3559 17.3462 32.8962 16.9687 32.7294L12.9406 30.9489C12.7567 30.8675 12.5501 30.8636 12.3592 30.9375C12.1679 31.0116 12.0179 31.1536 11.9367 31.3377L2.68809 52.2625C2.60669 52.4464 2.60263 52.653 2.67669 52.8441C2.75075 53.0351 2.89263 53.1852 3.07669 53.2664L7.10497 55.0469C7.28888 55.1283 7.49512 55.1327 7.68653 55.0583C7.87762 54.9844 8.02763 54.8423 8.10888 54.6583L17.3573 33.7333ZM18.5032 65.293L21.1278 60.7506C21.5395 59.7987 21.1543 58.6812 20.237 58.1917C19.2626 57.6719 18.0468 58.0395 17.5268 59.0122L15.5217 62.7612C15.2711 63.2295 15.2189 63.7706 15.375 64.2848C15.5308 64.7989 15.8743 65.22 16.3426 65.4705C17.0351 65.8408 17.8825 65.7655 18.5032 65.293ZM19.9706 67.8331C19.7201 68.3014 19.6679 68.8425 19.824 69.3567C19.9798 69.8709 20.3236 70.292 20.7918 70.5425C21.7642 71.0627 22.9815 70.6889 23.5075 69.7095L26.4156 64.0777C26.5762 63.2278 26.1623 62.3406 25.3979 61.9327C24.6986 61.5595 23.8459 61.6381 23.2245 62.1189L19.9706 67.8331ZM29.4104 72.003L31.985 67.0547C32.1447 66.2053 31.7311 65.3189 30.967 64.9112C30.2061 64.5048 29.2451 64.648 28.6286 65.2417L25.8295 70.6622C25.7845 71.4381 26.1911 72.1806 26.8809 72.5494C27.7432 73.0109 28.8175 72.7736 29.4104 72.003ZM35.4336 74.1937L37.3562 70.5986C37.7175 69.9233 37.6545 69.0839 37.1962 68.4603C37.0214 68.2223 36.799 68.0302 36.5354 67.8894C35.7742 67.4825 34.8132 67.6261 34.1961 68.2214L31.677 73.0633C31.6036 73.8634 32.0098 74.6326 32.7245 75.0147C33.1929 75.2653 33.7337 75.3175 34.2481 75.1616C34.762 75.0058 35.1831 74.662 35.4336 74.1937ZM41.4006 71.0042C41.3362 70.9683 41.2773 70.9264 41.2222 70.8814L40.0514 70.2187C39.9851 70.757 39.8232 71.2864 39.5606 71.7775L38.5059 73.7495L39.5862 74.37C40.0053 74.6105 40.5011 74.6689 40.9826 74.5339C41.4817 74.3939 41.91 74.0558 42.1572 73.6064C42.6622 72.6884 42.3228 71.5211 41.4006 71.0042ZM55.3228 57.4675L55.3218 57.4656C55.147 57.105 54.8692 56.8089 54.5182 56.6089L43.597 50.3841C41.7823 49.3498 39.4857 50.2798 36.8265 51.3564C32.8317 52.9736 27.8597 54.9862 23.5918 49.4947C23.3042 49.1255 23.1895 48.6491 23.2779 48.1887C23.3665 47.7283 23.6501 47.328 24.0559 47.0909C27.1292 45.2973 29.7237 43.3403 31.7679 41.2744C32.264 40.7731 32.764 40.3091 33.2647 39.8831C30.9881 38.9378 29.0231 39.3973 26.9653 39.8794C24.8556 40.3736 22.6745 40.8844 20.434 39.6475L17.9776 38.5142L11.8114 52.4658C13.0226 53.0053 13.7625 53.3278 14.0118 53.4245C15.5281 54.0131 16.0009 55.4091 16.2606 56.6297C17.63 55.385 19.6904 55.0659 21.4145 55.9864C22.7001 56.6725 23.5229 57.9062 23.7373 59.2567C24.689 59.1034 25.687 59.2534 26.5751 59.7275C27.6489 60.3005 28.4097 61.257 28.7517 62.3567C29.8551 62.032 31.0712 62.1331 32.144 62.7059C33.2178 63.2789 33.9784 64.2353 34.3206 65.3348C35.4239 65.0101 36.6407 65.1112 37.7137 65.6847C38.2356 65.9636 38.6868 66.3328 39.0581 66.7839L44.7829 70.0244L44.7895 70.028C45.2267 70.2712 45.7368 70.3277 46.2264 70.1867C46.7217 70.0441 47.1298 69.7197 47.3754 69.2731C47.8776 68.3603 47.5353 67.1955 46.6128 66.6762C46.5478 66.6397 46.4884 66.5973 46.4326 66.5517L38.5448 62.1131C37.9431 61.7747 37.7298 61.0125 38.0684 60.4108C38.4068 59.8091 39.1689 59.5956 39.7707 59.9344L49.6504 65.4937L49.6525 65.4948C50.0956 65.7387 50.6103 65.7941 51.1026 65.6517C51.5943 65.5089 51.9995 65.1862 52.2434 64.7428C52.7454 63.8302 52.4032 62.6651 51.4807 62.1459C51.4804 62.1458 51.4803 62.1456 51.48 62.1455C49.164 60.8484 46.5395 59.3784 43.9561 57.8994C43.357 57.5566 43.1493 56.7926 43.4923 56.1936C43.8351 55.5944 44.5989 55.3867 45.1981 55.7298C47.7726 57.2037 50.3928 58.6712 52.7047 59.9661C53.1375 60.2084 53.6442 60.265 54.1315 60.1256C54.6301 59.983 55.0404 59.6575 55.2872 59.2092C55.584 58.6689 55.597 58.0342 55.3228 57.4675ZM60.2417 53.9822L54.7078 39.7078L52.7537 40.7537C50.4378 41.9591 48.2539 41.0662 46.1423 40.203C43.335 39.0556 40.432 37.8694 36.2554 40.7341C35.3622 41.3444 34.4507 42.1175 33.5448 43.0328C31.5511 45.0476 29.0879 46.9559 26.2131 48.7139C29.1386 51.7709 32.2847 50.4977 35.8884 49.0391C38.8773 47.8291 41.9681 46.5776 44.835 48.212L55.7562 54.4369C56.1937 54.6862 56.5811 55.0025 56.907 55.3734L60.2417 53.9822ZM69.3251 54.1005L61.0557 32.7697C60.9829 32.5822 60.8397 32.4334 60.6523 32.3506C60.5522 32.3064 60.4467 32.2842 60.3415 32.2842C60.2498 32.2842 60.1582 32.3011 60.0711 32.335L55.9645 33.9269C55.5798 34.0761 55.3809 34.5272 55.53 34.9119L63.7995 56.2428C63.9486 56.6275 64.3995 56.8262 64.7847 56.6773L68.8907 55.0855C69.0782 55.0128 69.227 54.8695 69.3098 54.682C69.3923 54.4945 69.3979 54.288 69.3251 54.1005ZM5.04169 26.143C4.8045 25.8792 4.69075 25.5272 4.72856 25.1744C5.30122 19.8225 8.87497 15.4802 13.6756 13.7306C11.9442 12.3414 10.8328 10.21 10.8328 7.82265C10.8328 3.64656 14.2303 0.249058 18.4064 0.249058C22.5825 0.249058 25.98 3.64656 25.98 7.82265C25.98 10.2091 24.8693 12.34 23.1389 13.7292C25.9422 14.7511 28.3601 16.6719 30.0032 19.2517C30.4915 19.0037 30.9968 18.7856 31.5162 18.5962C29.7848 17.207 28.6736 15.0756 28.6736 12.6883C28.6736 8.51218 32.0709 5.11468 36.247 5.11468C40.4231 5.11468 43.8206 8.51218 43.8206 12.6883C43.8206 15.0756 42.7092 17.207 40.9778 18.5962C41.497 18.7855 42.0025 19.0036 42.4907 19.2516C44.134 16.6717 46.552 14.7509 49.3553 13.7291C47.625 12.3398 46.5143 10.2091 46.5143 7.8225C46.5143 3.6464 49.9118 0.248901 54.0879 0.248901C58.264 0.248901 61.6615 3.6464 61.6615 7.8225C61.6615 10.2098 60.55 12.3414 58.8186 13.7306C63.619 15.4802 67.1928 19.8225 67.7654 25.1741C67.8032 25.5267 67.6895 25.8789 67.4523 26.1427C67.2151 26.4064 66.8772 26.557 66.5226 26.557L49.0834 26.5572C49.5047 27.6537 49.7942 28.8197 49.9248 30.0397C49.9626 30.3925 49.8489 30.7445 49.6117 31.0083C49.3745 31.272 49.0365 31.4227 48.682 31.4227H23.812C23.4573 31.4227 23.1193 31.272 22.8823 31.0083C22.6453 30.7445 22.5314 30.3923 22.5692 30.0397C22.6997 28.8197 22.9893 27.6536 23.4107 26.557L5.97153 26.5572C5.61684 26.5573 5.27888 26.4067 5.04169 26.143ZM54.0876 12.8962C56.8851 12.8962 59.1612 10.6203 59.1612 7.82265C59.1612 5.02499 56.8853 2.74906 54.0876 2.74906C51.29 2.74906 49.014 5.02515 49.014 7.82265C49.014 10.6202 51.29 12.8962 54.0876 12.8962ZM44.6067 20.5822C45.8651 21.5433 46.9543 22.7173 47.8176 24.0573L65.0445 24.0572C63.8682 19.033 59.3804 15.3961 54.0875 15.3961C50.2079 15.3962 46.6673 17.3584 44.6067 20.5822ZM36.2437 17.7619H36.2468C36.2468 17.7619 36.2489 17.7619 36.25 17.7619C39.0461 17.7602 41.3204 15.4848 41.3204 12.6884C41.3204 9.89093 39.0445 7.61484 36.2468 7.61484C33.4492 7.61484 31.1734 9.89078 31.1734 12.6884C31.1734 15.4848 33.4476 17.7602 36.2437 17.7619ZM36.2436 20.2619C30.9518 20.2634 26.4657 23.8997 25.2897 28.923H47.204C46.0279 23.8997 41.5418 20.2633 36.2501 20.2619C36.249 20.2619 36.2479 20.2619 36.2468 20.2619C36.2457 20.2619 36.2447 20.2619 36.2436 20.2619ZM13.3328 7.82265C13.3328 10.6202 15.6087 12.8962 18.4064 12.8962C21.204 12.8962 23.48 10.6203 23.48 7.82265C23.48 5.02499 21.2039 2.74906 18.4062 2.74906C15.6086 2.74906 13.3328 5.02515 13.3328 7.82265ZM7.44888 24.0573L24.6761 24.0572C25.5392 22.7172 26.6286 21.5431 27.8868 20.5822C25.8262 17.3584 22.2854 15.3962 18.4061 15.3962C13.1129 15.3962 8.62528 19.0331 7.44888 24.0573Z" fill="white"/>
</svg>
