<svg width="44" height="32" viewBox="0 0 44 32" fill="none" xmlns="http://www.w3.org/2000/svg">
<path d="M41.5944 12.37L39.0149 10.3061C39.0046 10.2979 38.9943 10.2876 38.984 10.2793L41.3854 9.79875C41.7065 9.73481 41.9375 9.45294 41.9375 9.125V7.0625C41.9375 6.683 41.6295 6.375 41.25 6.375H37.8125C37.433 6.375 37.125 6.683 37.125 7.0625V8.267C37.1092 8.24569 37.0934 8.22438 37.0776 8.20306C37.0342 8.08344 36.9572 7.98581 36.8596 7.90812C36.4726 7.36019 36.1412 6.81156 35.9253 6.33719L34.7634 3.78175C34.023 2.15169 32.0402 0.875 30.25 0.875H13.75C11.9598 0.875 9.977 2.15169 9.23656 3.78175L8.07538 6.3365C7.8595 6.81087 7.52813 7.36019 7.14106 7.90812C7.04344 7.98581 6.96712 8.08344 6.92312 8.20306C6.90731 8.22438 6.89219 8.245 6.87569 8.267V7.0625C6.87569 6.683 6.56769 6.375 6.18819 6.375H2.75C2.3705 6.375 2.0625 6.683 2.0625 7.0625V9.125C2.0625 9.45294 2.2935 9.73481 2.61525 9.79875L5.01669 10.2793C5.00637 10.2876 4.99606 10.2979 4.98575 10.3061L2.40556 12.37C1.05669 13.4494 0 15.648 0 17.375V29.0625C0 30.1996 0.925375 31.125 2.0625 31.125H7.5625C8.69963 31.125 9.625 30.1996 9.625 29.0625V27.6875H34.375V29.0625C34.375 30.1996 35.3004 31.125 36.4375 31.125H41.9375C43.0746 31.125 44 30.1996 44 29.0625V17.375C44 15.648 42.9433 13.4494 41.5944 12.37ZM35.3471 26.3125L33.7707 24.7361C33.1017 24.0671 31.8835 23.5625 30.9375 23.5625H12.7188C11.7727 23.5625 10.5545 24.0671 9.88556 24.7361L8.30912 26.3125H3.4375C2.30037 26.3125 1.375 25.3871 1.375 24.25V20.8125H2.0625V21.5C2.0625 23.0166 3.29587 24.25 4.8125 24.25H6.875C7.2545 24.25 7.5625 23.942 7.5625 23.5625C7.5625 23.183 7.2545 22.875 6.875 22.875H4.8125C4.05419 22.875 3.4375 22.2583 3.4375 21.5V20.8125H4.8125C5.38312 20.8125 6.27 21.1796 6.67356 21.5832C6.80762 21.7172 6.98362 21.7846 7.15962 21.7846C7.33562 21.7846 7.51163 21.7172 7.64569 21.5832C7.9145 21.3144 7.9145 20.8799 7.64569 20.6111C6.97675 19.9421 5.75919 19.4375 4.8125 19.4375H1.375V17.375C1.375 17.1323 1.4135 16.8704 1.46781 16.6029C1.90781 17.0622 2.54787 17.375 3.4375 17.375H8.9375C9.11969 17.375 9.29431 17.3028 9.42356 17.1736L10.3125 16.2846L11.2014 17.1736C11.33 17.3028 11.5053 17.375 11.6875 17.375H19.6529L21.5139 19.2361C21.648 19.3701 21.824 19.4375 22 19.4375C22.176 19.4375 22.352 19.3701 22.4861 19.2361L24.3471 17.375H32.3125C32.4947 17.375 32.67 17.3028 32.7986 17.1736L33.6875 16.2846L34.5764 17.1736C34.705 17.3028 34.8803 17.375 35.0625 17.375H40.5625C41.4521 17.375 42.0922 17.0622 42.5322 16.6029C42.5865 16.8704 42.625 17.1323 42.625 17.375V19.4375H39.1875C38.2415 19.4375 37.0233 19.9421 36.3543 20.6111C36.0855 20.8799 36.0855 21.3144 36.3543 21.5832C36.4884 21.7172 36.6644 21.7846 36.8404 21.7846C37.0164 21.7846 37.1924 21.7172 37.3264 21.5832C37.73 21.1796 38.6169 20.8125 39.1875 20.8125H40.5625V21.5C40.5625 22.2583 39.9458 22.875 39.1875 22.875H37.125C36.7455 22.875 36.4375 23.183 36.4375 23.5625C36.4375 23.942 36.7455 24.25 37.125 24.25H39.1875C40.7041 24.25 41.9375 23.0166 41.9375 21.5V20.8125H42.625V24.25C42.625 25.3871 41.6996 26.3125 40.5625 26.3125H35.3471ZM33.4029 26.3125H10.2534L10.8577 25.7082C11.2613 25.3046 12.1481 24.9375 12.7188 24.9375H30.9375C31.5081 24.9375 32.395 25.3046 32.7986 25.7082L33.4029 26.3125ZM7.9475 9.125H36.0525C36.7187 10.0057 37.4798 10.8389 38.1556 11.38L38.9826 12.0414L34.1199 13.9863C34.1193 13.9863 34.1192 13.987 34.1186 13.987C34.0354 14.0207 33.957 14.0709 33.8896 14.1383L33.2021 14.8258L32.0279 16H24.0625C23.8803 16 23.705 16.0722 23.5764 16.2014L22 17.7779L20.4236 16.2014C20.295 16.0722 20.1197 16 19.9375 16H11.9721L10.7986 14.8264L10.1111 14.1389C10.0437 14.0716 9.96531 14.0214 9.88212 13.9877C9.88144 13.9877 9.88144 13.987 9.88075 13.987L5.01806 12.0421L5.84512 11.3807C6.52025 10.8389 7.28131 10.0057 7.9475 9.125ZM41.8969 14.9131C41.7588 15.6315 41.3133 16 40.5625 16H35.3471L34.6596 15.3125L34.7614 15.2107L40.2167 13.0286L40.7351 13.4439C41.1709 13.7924 41.5731 14.3225 41.8969 14.9131ZM38.5 7.75H40.5625V8.56125L38.5 8.97375V7.75ZM9.32594 6.90575L10.4871 4.351C11.0055 3.21181 12.4994 2.25 13.75 2.25H30.25C31.5006 2.25 32.9945 3.21181 33.5122 4.35031L34.6741 6.90575C34.7951 7.17112 34.9525 7.45781 35.1251 7.75H8.87494C9.0475 7.45781 9.20562 7.17112 9.32594 6.90575ZM3.4375 7.75H5.5V8.97375L3.4375 8.56125V7.75ZM3.26425 13.4439L3.78262 13.0286L9.23862 15.2107L9.34037 15.3125L8.65287 16H3.4375C2.68675 16 2.24125 15.6315 2.10306 14.9131C2.42688 14.3225 2.82838 13.7924 3.26425 13.4439ZM7.5625 29.75H2.0625C1.68369 29.75 1.375 29.4413 1.375 29.0625V26.9828C1.95113 27.4187 2.66062 27.6875 3.4375 27.6875H8.25V29.0625C8.25 29.4413 7.94131 29.75 7.5625 29.75ZM41.9375 29.75H36.4375C36.0587 29.75 35.75 29.4413 35.75 29.0625V27.6875H40.5625C41.3394 27.6875 42.0489 27.4187 42.625 26.9828V29.0625C42.625 29.4413 42.3163 29.75 41.9375 29.75Z" fill="#3E5680"/>
</svg>
