<svg width="36" height="44" viewBox="0 0 36 44" fill="none" xmlns="http://www.w3.org/2000/svg">
<path d="M35.272 7.54283C35.2003 6.99085 34.9147 6.50152 34.4678 6.16525C34.0172 5.82588 33.4632 5.68538 32.9055 5.77011C27.6275 6.57139 23.2791 5.0967 19.6106 1.25916C19.1572 0.784789 18.5201 0.515289 17.8561 0.515289C17.8397 0.515289 17.8235 0.515461 17.8076 0.515891C17.1252 0.529297 16.4779 0.826727 16.0314 1.33247C12.8518 4.94881 8.40568 6.38516 2.44128 5.72525C1.8502 5.65865 1.26067 5.85012 0.818263 6.24749C0.37663 6.6447 0.124919 7.21257 0.127755 7.80631C0.184388 18.0383 0.425185 26.8417 2.80668 30.9477C2.97718 31.2386 4.62194 33.2364 5.39315 34.1165C5.62002 34.3764 6.01602 34.4029 6.2759 34.1749C6.53577 33.9472 6.5619 33.5519 6.33416 33.2919C5.51372 32.3548 4.70711 31.371 3.86913 30.2851C1.48058 26.1085 1.42197 15.5295 1.37918 7.80004C1.37797 7.55993 1.47611 7.33907 1.65538 7.17794C1.83422 7.01663 2.06436 6.9429 2.30309 6.96894C8.61546 7.66838 13.55 6.04949 16.97 2.15979C17.1846 1.91676 17.4992 1.77359 17.832 1.76688C18.1754 1.76645 18.4834 1.89072 18.7062 2.12395C22.677 6.27783 27.3822 7.87489 33.0933 7.00718C33.3145 6.97272 33.5353 7.02935 33.715 7.16488C33.8905 7.2973 34.0029 7.48877 34.0311 7.70568C34.9873 14.9293 35.0304 25.1523 32.0137 30.1755C28.1326 36.2389 24.0348 39.2478 19.0758 41.9001C18.2386 42.3485 17.2531 42.3424 16.44 41.8853C13.7713 40.3899 11.0955 38.2857 8.4875 35.631C8.24507 35.3843 7.84915 35.3808 7.60268 35.6232C7.35579 35.8654 7.35252 36.2616 7.59452 36.5081C10.2861 39.2473 13.0563 41.4237 15.8272 42.9767C17.0438 43.6606 18.4799 43.6383 19.666 43.0037C24.7977 40.259 29.0406 37.1419 33.0773 30.8351C36.2659 25.5258 36.3014 15.3211 35.272 7.54283Z" fill="#3E5680"/>
<path d="M16.339 37.3616C17.248 37.8726 18.3517 37.8829 19.2892 37.3814C23.0334 35.3793 26.1292 33.1047 29.0794 28.4954C31.4137 24.6082 31.4447 17.1631 30.6955 11.4922C30.6368 11.0473 30.4058 10.6527 30.0453 10.3814C29.6803 10.1073 29.2321 9.99378 28.7811 10.0621C25.0161 10.6328 21.9111 9.57938 19.2912 6.84133C18.9197 6.45332 18.3852 6.24166 17.8515 6.24896C17.3097 6.26056 16.7964 6.49767 16.4432 6.89934C14.1773 9.47643 11.0006 10.4998 6.73695 10.0282C6.25501 9.9741 5.7808 10.1296 5.42477 10.4509C5.06873 10.7715 4.86626 11.2298 4.86909 11.7079C4.88791 15.115 4.82252 25.9427 6.87788 28.6404C9.98023 32.6757 13.0747 35.5284 16.339 37.3616ZM6.12069 11.7008C6.11991 11.5344 6.20912 11.4288 6.26248 11.3807C6.31662 11.3323 6.43436 11.2547 6.59936 11.2719C11.2333 11.7842 14.863 10.5914 17.3835 7.72546C17.5073 7.58426 17.6833 7.50425 17.8781 7.50021C18.0703 7.49617 18.2577 7.57128 18.3873 7.70672C21.3086 10.76 24.7706 11.9357 28.9686 11.2992C29.0827 11.2827 29.1992 11.3106 29.2929 11.3815C29.3829 11.4491 29.4403 11.5462 29.4546 11.6555C30.3614 18.5188 29.7931 24.8759 28.0158 27.8358C25.2215 32.2017 22.2705 34.3681 18.6994 36.2777C18.1421 36.5749 17.4899 36.5722 16.9517 36.2705C13.8467 34.5265 10.8842 31.7918 7.89573 27.9109C6.19356 24.917 6.15162 17.2816 6.12069 11.7008Z" fill="#3E5680"/>
<path d="M14.8105 28.1438C15.1185 28.4986 15.5621 28.7011 16.031 28.7011C16.038 28.7011 16.0448 28.7009 16.0514 28.7009C16.5284 28.695 16.9757 28.4805 17.2792 28.1124L24.3913 19.4764C25.0492 18.6773 24.9343 17.492 24.1354 16.8343C23.3358 16.1764 22.1515 16.2905 21.4928 17.0897L15.9891 23.7726L14.498 22.0539C13.819 21.2719 12.6314 21.1878 11.8501 21.8657C11.0648 22.5471 10.9833 23.7318 11.6623 24.5143L14.8105 28.1438ZM12.6697 22.8112C12.9293 22.586 13.3253 22.6121 13.5529 22.8739L15.5287 25.1519C15.7817 25.4435 16.237 25.4395 16.4844 25.1397L22.4586 17.8855C22.679 17.6188 23.0733 17.5807 23.3398 17.8003C23.6058 18.0195 23.6441 18.4147 23.425 18.6808L16.3134 27.3164C16.2197 27.4303 16.0991 27.4486 16.036 27.4495C15.9773 27.4515 15.8522 27.435 15.7565 27.324C15.7561 27.3238 15.7561 27.3238 15.7561 27.3238L12.6074 23.6941C12.3813 23.4333 12.4094 23.0373 12.6697 22.8112Z" fill="#3E5680"/>
</svg>
