<svg width="44" height="44" viewBox="0 0 44 44" fill="none" xmlns="http://www.w3.org/2000/svg">
<path d="M40.561 35.8366C40.562 35.8075 40.5625 35.7786 40.5625 35.75C40.5617 35.0209 40.2717 34.3219 39.7561 33.8064C39.2406 33.2908 38.5416 33.0008 37.8125 33V20.2812L40.2875 18.425C40.3735 18.3605 40.4431 18.2768 40.4909 18.1805C40.5386 18.0843 40.5632 17.9782 40.5625 17.8707C40.5618 17.7633 40.536 17.6575 40.487 17.5618C40.4381 17.4662 40.3674 17.3833 40.2806 17.3199L34.375 13.0042V5.5C34.5574 5.5 34.7322 5.42757 34.8611 5.29864C34.9901 5.1697 35.0625 4.99484 35.0625 4.8125V2.0625C35.0625 1.88016 34.9901 1.7053 34.8611 1.57636C34.7322 1.44743 34.5574 1.375 34.375 1.375H27.5C27.3177 1.375 27.1428 1.44743 27.0139 1.57636C26.8849 1.7053 26.8125 1.88016 26.8125 2.0625V4.8125C26.8125 4.99484 26.8849 5.1697 27.0139 5.29864C27.1428 5.42757 27.3177 5.5 27.5 5.5V7.98024L22.4056 4.25743C22.2879 4.17139 22.1458 4.12502 22 4.12502C21.8542 4.12502 21.7121 4.17139 21.5944 4.25743L3.71939 17.3199C3.63263 17.3833 3.56195 17.4662 3.513 17.5618C3.46405 17.6575 3.43821 17.7633 3.43754 17.8707C3.43687 17.9782 3.4614 18.0843 3.50915 18.1805C3.5569 18.2768 3.62655 18.3605 3.71251 18.425L6.18751 20.2812V33C5.45842 33.0008 4.75942 33.2908 4.24387 33.8064C3.72833 34.3219 3.43833 35.0209 3.43751 35.75C3.43751 35.7786 3.43803 35.8075 3.43906 35.8366C2.79048 36.0034 2.22504 36.4011 1.84882 36.9551C1.47261 37.5091 1.31148 38.1813 1.39566 38.8457C1.47985 39.5101 1.80356 40.1209 2.30607 40.5635C2.80858 41.0062 3.45534 41.2503 4.12501 41.25H39.875C40.5447 41.2503 41.1915 41.0062 41.694 40.5635C42.1965 40.1209 42.5202 39.5101 42.6044 38.8457C42.6885 38.1813 42.5274 37.5091 42.1512 36.9551C41.775 36.4011 41.2095 36.0034 40.561 35.8366ZM28.1875 2.75H33.6875V4.125H28.1875V2.75ZM28.875 8.9375V5.5H33V11.9995L28.81 8.9375H28.875ZM22 5.66397L38.7196 17.8822L37.1187 19.0829L22.4044 8.38148C22.2869 8.296 22.1453 8.24995 22 8.24995C21.8547 8.24995 21.7131 8.296 21.5956 8.38148L6.88129 19.0829L5.28044 17.8822L22 5.66397ZM2.75001 38.5C2.75039 38.139 2.89256 37.7926 3.14589 37.5354C3.39922 37.2782 3.74344 37.1308 4.10439 37.125H4.10602C4.14117 37.1299 4.17632 37.1341 4.21215 37.1364C4.32608 37.1436 4.44001 37.1223 4.54365 37.0745C4.64729 37.0266 4.73739 36.9537 4.8058 36.8623C4.87422 36.771 4.91881 36.664 4.93554 36.5511C4.95227 36.4381 4.94061 36.3228 4.90163 36.2155C4.84474 36.0668 4.81457 35.9092 4.81251 35.75C4.81295 35.3855 4.95795 35.036 5.21572 34.7782C5.47349 34.5204 5.82297 34.3754 6.18751 34.375V39.875H4.12501C3.76047 39.8746 3.41099 39.7296 3.15322 39.4718C2.89545 39.214 2.75045 38.8645 2.75001 38.5ZM32.3125 39.875H24.0625V24.75H32.3125V39.875ZM33.6875 39.875V24.0625C33.6875 23.8802 33.6151 23.7053 33.4861 23.5764C33.3572 23.4474 33.1823 23.375 33 23.375H23.375C23.1927 23.375 23.0178 23.4474 22.8889 23.5764C22.7599 23.7053 22.6875 23.8802 22.6875 24.0625V39.875H7.56251V20.2876L22 9.78759L36.4375 20.2876V39.875H33.6875ZM39.875 39.875H37.8125V34.375C38.1771 34.3754 38.5265 34.5204 38.7843 34.7782C39.0421 35.036 39.1871 35.3855 39.1875 35.75C39.1855 35.9093 39.1553 36.067 39.0984 36.2159C39.0594 36.3232 39.0478 36.4385 39.0645 36.5514C39.0812 36.6643 39.1258 36.7713 39.1942 36.8627C39.2626 36.9541 39.3527 37.027 39.4564 37.0748C39.56 37.1227 39.6739 37.144 39.7879 37.1368C39.8237 37.1345 39.8589 37.1302 39.894 37.1253H39.8956C40.2603 37.1281 40.609 37.2756 40.8649 37.5354C41.1208 37.7952 41.2631 38.146 41.2603 38.5107C41.2576 38.8753 41.1101 39.224 40.8503 39.4799C40.5905 39.7358 40.2397 39.8781 39.875 39.8753V39.875Z" fill="#3E5680"/>
<path d="M19.25 23.375H11C10.8177 23.375 10.6428 23.4474 10.5139 23.5764C10.3849 23.7053 10.3125 23.8802 10.3125 24.0625V33.6875C10.3125 33.8698 10.3849 34.0447 10.5139 34.1736C10.6428 34.3026 10.8177 34.375 11 34.375H19.25C19.4323 34.375 19.6072 34.3026 19.7361 34.1736C19.8651 34.0447 19.9375 33.8698 19.9375 33.6875V24.0625C19.9375 23.8802 19.8651 23.7053 19.7361 23.5764C19.6072 23.4474 19.4323 23.375 19.25 23.375ZM18.5625 28.1875H15.8125V24.75H18.5625V28.1875ZM14.4375 24.75V28.1875H11.6875V24.75H14.4375ZM11.6875 29.5625H14.4375V33H11.6875V29.5625ZM15.8125 33V29.5625H18.5625V33H15.8125Z" fill="#3E5680"/>
<path d="M26.7602 31.8881C26.9055 31.5373 26.7389 31.1351 26.3881 30.9898C26.0373 30.8445 25.6352 31.0111 25.4899 31.3619C25.3446 31.7127 25.5112 32.1149 25.8619 32.2602C26.2127 32.4055 26.6149 32.2389 26.7602 31.8881Z" fill="#3E5680"/>
</svg>
