<svg width="48" height="48" viewBox="0 0 48 48" fill="none" xmlns="http://www.w3.org/2000/svg">
<g clip-path="url(#clip0_90_256)">
<path d="M47.13 36.4162L28.38 17.6662L31.005 15.0412L31.1325 15.1687C31.6954 15.6727 32.4298 15.9422 33.185 15.922C33.9403 15.9018 34.6592 15.5935 35.1944 15.0602C35.7296 14.5269 36.0405 13.8091 36.0634 13.054C36.0863 12.2988 35.8194 11.5634 35.3175 10.9987L25.1925 0.873738C24.6346 0.339241 23.8898 0.0441585 23.1173 0.051558C22.3447 0.0589574 21.6057 0.368252 21.0581 0.913336C20.5106 1.45842 20.198 2.19605 20.1871 2.96857C20.1763 3.7411 20.468 4.48723 21 5.04749L21.1275 5.17499L11.6813 14.625L11.5538 14.4975C10.9929 13.977 10.2522 13.694 9.48723 13.708C8.72221 13.7219 7.99234 14.0316 7.45081 14.5722C6.90929 15.1127 6.59823 15.8421 6.58293 16.607C6.56763 17.372 6.84928 18.1132 7.36876 18.675L17.4938 28.8C17.7678 29.0755 18.0934 29.2944 18.4521 29.444C18.8107 29.5937 19.1953 29.6713 19.5839 29.6724C19.9725 29.6734 20.3576 29.5979 20.717 29.4501C21.0764 29.3024 21.4032 29.0853 21.6788 28.8112C21.9543 28.5372 22.1731 28.2115 22.3228 27.8529C22.4725 27.4943 22.5501 27.1097 22.5511 26.7211C22.5522 26.3325 22.4767 25.9474 22.3289 25.588C22.1812 25.2286 21.9641 24.9018 21.69 24.6262L21.5625 24.4987L24.1875 21.8737L42.9375 40.6237C43.5026 41.1456 44.2477 41.4286 45.0168 41.4133C45.7858 41.398 46.5191 41.0857 47.0631 40.5418C47.607 39.9979 47.9193 39.2646 47.9346 38.4955C47.9498 37.7265 47.6669 36.9813 47.145 36.4162H47.13ZM22.0575 1.91624C22.332 1.64464 22.7026 1.4923 23.0888 1.4923C23.4749 1.4923 23.8455 1.64464 24.12 1.91624L34.245 12.0412C34.5175 12.3153 34.6705 12.686 34.6705 13.0725C34.6705 13.459 34.5175 13.8297 34.245 14.1037C33.9664 14.3675 33.5974 14.5145 33.2138 14.5145C32.8301 14.5145 32.4611 14.3675 32.1825 14.1037L27.1238 9.05624L22.7175 4.64624L22.0575 3.98624C21.785 3.7122 21.632 3.34145 21.632 2.95499C21.632 2.56853 21.785 2.19777 22.0575 1.92374V1.91624ZM20.625 27.75C20.3464 28.0137 19.9774 28.1607 19.5938 28.1607C19.2101 28.1607 18.8411 28.0137 18.5625 27.75L8.43751 17.625C8.17371 17.3495 8.0283 16.9817 8.03244 16.6003C8.03657 16.2189 8.18991 15.8543 8.45961 15.5846C8.72931 15.3149 9.09391 15.1615 9.4753 15.1574C9.85669 15.1533 10.2245 15.2987 10.5 15.5625L11.1563 16.2187L19.9688 25.0275L20.625 25.6875C20.8975 25.9615 21.0505 26.3323 21.0505 26.7187C21.0505 27.1052 20.8975 27.476 20.625 27.75ZM12.75 15.6787L22.185 6.23624L29.9438 13.995L20.5013 23.4375L18.0263 20.9625L12.75 15.6787ZM46.0763 39.5625C45.7964 39.834 45.4218 39.9858 45.0319 39.9858C44.642 39.9858 44.2674 39.834 43.9875 39.5625L25.2375 20.8125L27.3263 18.75L46.0763 37.5C46.3442 37.7769 46.4933 38.1475 46.4919 38.5328C46.4905 38.918 46.3387 39.2876 46.0688 39.5625H46.0763Z" fill="#3E5680"/>
<path d="M30.405 43.3125C30.2413 42.3877 29.7575 41.55 29.0383 40.946C28.3191 40.342 27.4104 40.0102 26.4713 40.0088H7.27875C6.33959 40.0102 5.43087 40.342 4.71169 40.946C3.99251 41.55 3.50871 42.3877 3.345 43.3125C2.41202 43.4676 1.56415 43.9482 0.951813 44.669C0.339475 45.3898 0.00226181 46.3042 0 47.25C0 47.4489 0.0790176 47.6397 0.21967 47.7803C0.360322 47.921 0.551088 48 0.75 48H33C33.1989 48 33.3897 47.921 33.5303 47.7803C33.671 47.6397 33.75 47.4489 33.75 47.25C33.7477 46.3042 33.4105 45.3898 32.7982 44.669C32.1859 43.9482 31.338 43.4676 30.405 43.3125ZM7.27875 41.5088H26.4713C27.0023 41.5095 27.5193 41.6793 27.9474 41.9935C28.3755 42.3077 28.6925 42.7499 28.8525 43.2563H4.8975C5.05687 42.7492 5.3736 42.3061 5.80176 41.9913C6.22993 41.6764 6.74726 41.5061 7.27875 41.505V41.5088ZM1.61625 46.5C1.77627 45.9937 2.09328 45.5514 2.52139 45.2372C2.9495 44.9231 3.46648 44.7533 3.9975 44.7525H29.7525C30.2835 44.7533 30.8005 44.9231 31.2286 45.2372C31.6567 45.5514 31.9737 45.9937 32.1338 46.5H1.61625Z" fill="#3E5680"/>
</g>
<defs>
<clipPath id="clip0_90_256">
<rect width="48" height="48" fill="white"/>
</clipPath>
</defs>
</svg>
