<svg width="42" height="40" viewBox="0 0 42 40" fill="none" xmlns="http://www.w3.org/2000/svg">
<path d="M32.7356 0.375H18.6487C13.8775 0.375 10 4.2525 10 9.02375C10 10.2269 10.2406 11.3956 10.7219 12.4888L14.0356 20.0444C13.2175 21.8044 12.75 23.75 12.75 25.8125H10V24.4444C10 23.6813 9.38125 23.0625 8.61812 23.0625H6.52812C5.4075 23.0625 4.5 23.97 4.5 25.0906V25.125H3.125C1.60562 25.125 0.375 26.3556 0.375 27.875C0.375 29.3944 1.60562 30.625 3.125 30.625H4.5V30.6594C4.5 31.78 5.4075 32.6875 6.52812 32.6875H8.61812C9.38125 32.6875 10 32.0688 10 31.3056V29.9375H13.3962C15.1837 35.63 20.4912 39.5625 26.5 39.5625C34.0831 39.5625 40.25 33.3956 40.25 25.8125C40.25 23.4475 39.645 21.2131 38.5931 19.2675L41.1094 12.2619C41.4531 11.2925 41.6319 10.2819 41.6319 9.26438C41.6319 6.8925 40.7106 4.65813 39.0262 2.97375C37.3419 1.29625 35.1075 0.375 32.7425 0.375H32.7356ZM3.125 29.25C2.36875 29.25 1.75 28.6313 1.75 27.875C1.75 27.1188 2.36875 26.5 3.125 26.5H4.5V29.25H3.125ZM8.625 31.3125H6.52812C6.17062 31.3125 5.875 31.0169 5.875 30.6594V25.0906C5.875 24.7331 6.17062 24.4375 6.52812 24.4375H8.625V31.3125ZM10 27.1875H17.5625V28.5625H10V27.1875ZM26.5 38.1875C21.2337 38.1875 16.5656 34.8394 14.8331 29.9375H17.5625V31.3056C17.5625 32.0688 18.1812 32.6875 18.9444 32.6875H21.0344C22.155 32.6875 23.0625 31.78 23.0625 30.6594V30.625H24.4375C25.9569 30.625 27.1875 29.3944 27.1875 27.875C27.1875 26.3556 25.9569 25.125 24.4375 25.125H23.0625V25.0906C23.0625 23.97 22.155 23.0625 21.0344 23.0625H18.9444C18.1812 23.0625 17.5625 23.6813 17.5625 24.4444V25.8125H14.125C14.125 18.9925 19.68 13.4375 26.5 13.4375C33.32 13.4375 38.875 18.9925 38.875 25.8125C38.875 32.6325 33.32 38.1875 26.5 38.1875ZM18.9375 31.3056V24.4375H21.0344C21.3919 24.4375 21.6875 24.7331 21.6875 25.0906V30.6594C21.6875 31.0169 21.3919 31.3125 21.0344 31.3125H18.9375V31.3056ZM23.0625 26.5H24.4375C25.1937 26.5 25.8125 27.1188 25.8125 27.875C25.8125 28.6313 25.1937 29.25 24.4375 29.25H23.0625V26.5ZM35.5819 15.5206C33.155 13.3756 29.9787 12.0625 26.5 12.0625C22.6981 12.0625 19.2537 13.6163 16.765 16.1119L14.5994 11.6844C14.29 11.045 14.125 10.3438 14.125 9.64938C14.125 6.81 16.7375 4.5 19.9481 4.5H31.4775C33.1 4.5 34.6262 5.06375 35.7606 6.08125C36.8812 7.085 37.5 8.41875 37.5 9.82813C37.5 10.4331 37.3831 11.0313 37.1562 11.6019L35.5819 15.5206ZM39.81 11.7944L37.6581 17.8031C37.3487 17.37 37.0119 16.9575 36.6475 16.5656L38.435 12.1106C38.7306 11.375 38.875 10.6119 38.875 9.82813C38.875 8.02688 38.0981 6.33563 36.6819 5.06375C35.2931 3.8125 33.4437 3.125 31.4775 3.125H19.9481C15.9812 3.125 12.75 6.05375 12.75 9.64938C12.75 10.55 12.9631 11.4644 13.3619 12.2894L15.775 17.2256C15.445 17.6381 15.1425 18.0713 14.8606 18.5181L11.98 11.9388C11.5744 11.0175 11.3681 10.0344 11.3681 9.02375C11.3681 5.01563 14.6337 1.75 18.6419 1.75H32.7287C34.7362 1.75 36.62 2.53375 38.0431 3.95C39.4594 5.37313 40.2431 7.26375 40.2431 9.26438C40.2431 10.1238 40.0919 10.9763 39.8031 11.7944H39.81Z" fill="#3E5680"/>
</svg>
