<svg width="80" height="80" viewBox="0 0 80 80" fill="none" xmlns="http://www.w3.org/2000/svg">
<path d="M66.45 32.6625C66.4625 32.6 66.45 32.55 66.45 32.4875C66.45 32.4 66.4375 32.325 66.4125 32.2375C66.4 32.1875 66.3875 32.1375 66.375 32.0875C66.3625 32.075 66.3625 32.05 66.3625 32.0375C66.3125 31.925 66.25 31.825 66.1625 31.7375L56.6375 21.1375C56.4125 20.8875 56.075 20.7375 55.7375 20.7375H24.275C23.925 20.7375 23.6 20.8875 23.375 21.1375L13.8625 31.725C13.775 31.825 13.7 31.925 13.6375 32.05C13.625 32.075 13.625 32.1 13.6125 32.125C13.6 32.15 13.6 32.175 13.5875 32.2C13.55 32.3125 13.5375 32.4375 13.5375 32.55V32.65C13.55 32.7875 13.575 32.925 13.6375 33.0625C13.6375 33.075 13.65 33.075 13.65 33.0875C13.7 33.1875 13.75 33.275 13.825 33.3625L39.075 61.5C39.1 61.5375 39.15 61.55 39.175 61.575C39.2375 61.6375 39.3125 61.6875 39.3875 61.725C39.45 61.7625 39.5 61.7875 39.5625 61.8125C39.6625 61.85 39.7625 61.875 39.875 61.875C39.9125 61.875 39.95 61.9 39.9875 61.9C40.0125 61.9 40.05 61.8875 40.075 61.8875C40.2 61.875 40.3125 61.85 40.425 61.8125C40.475 61.7875 40.525 61.7625 40.5625 61.7375C40.65 61.6875 40.7375 61.625 40.8125 61.55C40.8375 61.525 40.8625 61.525 40.8875 61.5L66.05 33.4625C66.05 33.4625 66.05 33.4625 66.05 33.45L66.125 33.3625C66.175 33.3125 66.2 33.25 66.2375 33.1875C66.2875 33.1125 66.325 33.025 66.3625 32.9375C66.4125 32.825 66.4375 32.75 66.45 32.6625ZM62.5375 31.3125H50.4125L46.7375 23.15H55.2L62.5375 31.3125ZM32.05 33.7375H47.925L40 56.9125L32.05 33.7375ZM32.2375 31.3125L35.9125 23.15H44.075L47.75 31.3125H32.2375ZM24.8125 23.1375H33.2625L29.5875 31.3H17.475L24.8125 23.1375ZM29.4875 33.7375L36.925 55.425L17.4625 33.7375H29.4875ZM43.075 55.4125L50.5 33.725H62.5375L43.075 55.4125Z" fill="white"/>
<path d="M40 7.075C40.675 7.075 41.2125 6.5375 41.2125 5.8625V1.2125C41.2125 0.5375 40.6625 0 40 0C39.325 0 38.7875 0.5375 38.7875 1.2125V5.8625C38.7875 6.525 39.325 7.075 40 7.075Z" fill="white"/>
<path d="M21.875 11.0375C22.1 11.425 22.5125 11.6375 22.925 11.6375C23.125 11.6375 23.3375 11.5875 23.525 11.475C24.1 11.1375 24.3 10.4 23.975 9.825L21.65 5.8C21.3125 5.225 20.575 5.025 20 5.3625C19.425 5.7 19.225 6.4375 19.55 7.0125L21.875 11.0375Z" fill="white"/>
<path d="M5.8 21.6625L9.825 23.9875C10.0125 24.1 10.225 24.15 10.425 24.15C10.85 24.15 11.25 23.9375 11.475 23.55C11.8125 22.975 11.6125 22.225 11.025 21.9L7 19.575C6.425 19.225 5.6875 19.425 5.35 20C5.025 20.5875 5.225 21.325 5.8 21.6625Z" fill="white"/>
<path d="M7.075 40C7.075 39.325 6.5375 38.7875 5.8625 38.7875H1.2125C0.5375 38.7875 0 39.3375 0 40C0 40.6625 0.5375 41.2125 1.2125 41.2125H5.8625C6.525 41.2125 7.075 40.675 7.075 40Z" fill="white"/>
<path d="M9.82498 56.025L5.79998 58.35C5.22498 58.6875 5.02498 59.425 5.36248 60C5.58748 60.3875 5.99998 60.6 6.41248 60.6C6.61248 60.6 6.82498 60.55 7.01248 60.4375L11.0375 58.1125C11.6125 57.775 11.8125 57.0375 11.4875 56.4625C11.15 55.8875 10.4125 55.6875 9.82498 56.025Z" fill="white"/>
<path d="M23.5375 68.525C22.95 68.1875 22.2125 68.3875 21.8875 68.975L19.5625 73C19.225 73.575 19.425 74.325 20.0125 74.65C20.2 74.7625 20.4125 74.8125 20.6125 74.8125C21.0375 74.8125 21.4375 74.6 21.6625 74.2125L23.9875 70.1875C24.3125 69.6 24.125 68.85 23.5375 68.525Z" fill="white"/>
<path d="M40 72.925C39.325 72.925 38.7875 73.4625 38.7875 74.1375V78.7875C38.7875 79.4625 39.325 80 40 80C40.675 80 41.2125 79.4625 41.2125 78.7875V74.1375C41.2125 73.475 40.675 72.925 40 72.925Z" fill="white"/>
<path d="M58.1251 68.9625C57.7876 68.3875 57.0501 68.1875 56.4751 68.5125C55.9001 68.85 55.7 69.5875 56.025 70.1625L58.3501 74.1875C58.5751 74.575 58.9876 74.7875 59.4001 74.7875C59.6001 74.7875 59.8126 74.7375 60.0001 74.625C60.5751 74.2875 60.7751 73.55 60.4501 72.975L58.1251 68.9625Z" fill="white"/>
<path d="M74.2 58.3375L70.175 56.0125C69.5875 55.675 68.85 55.875 68.525 56.4625C68.1875 57.0375 68.3875 57.7875 68.975 58.1125L73 60.4375C73.1875 60.55 73.4 60.6 73.6 60.6C74.025 60.6 74.425 60.3875 74.65 60C74.975 59.4125 74.775 58.675 74.2 58.3375Z" fill="white"/>
<path d="M78.7875 38.7875H74.1376C73.4626 38.7875 72.925 39.325 72.925 40C72.925 40.675 73.4626 41.2125 74.1376 41.2125H78.7875C79.4625 41.2125 80 40.675 80 40C80 39.325 79.4625 38.7875 78.7875 38.7875Z" fill="white"/>
<path d="M69.5625 24.1375C69.7625 24.1375 69.975 24.0875 70.1625 23.975L74.1875 21.65C74.7625 21.3125 74.9625 20.575 74.6375 20C74.3 19.425 73.5625 19.225 72.9875 19.55L68.9625 21.875C68.3875 22.2125 68.1875 22.95 68.5125 23.525C68.7375 23.9125 69.15 24.1375 69.5625 24.1375Z" fill="white"/>
<path d="M56.4625 11.475C56.65 11.5875 56.8625 11.6375 57.0625 11.6375C57.4875 11.6375 57.8875 11.425 58.1125 11.0375L60.4375 7.01249C60.775 6.43749 60.575 5.68749 59.9875 5.36249C59.4 5.02499 58.6625 5.22499 58.3375 5.81249L56.0125 9.83749C55.6875 10.4 55.875 11.15 56.4625 11.475Z" fill="white"/>
</svg>
