<svg width="80" height="68" viewBox="0 0 80 68" fill="none" xmlns="http://www.w3.org/2000/svg">
<path d="M56.4922 25.4594V19.4094C56.4922 16.5125 54.1344 14.1562 51.2344 14.1562C50.0485 14.1562 48.9532 14.5516 48.0735 15.2156C47.2813 13.3156 45.4063 11.9781 43.2235 11.9781C41.0391 11.9781 39.161 13.3172 38.3688 15.2172C37.4876 14.5531 36.3922 14.1578 35.2063 14.1578C33.1797 14.1578 31.4204 15.3109 30.5438 16.9953C29.6329 16.2422 28.4657 15.7875 27.1938 15.7875C24.2954 15.7875 21.936 18.1437 21.936 21.0406V36.8344C21.936 38.8797 22.3954 40.6656 23.3797 42.4594L24.8188 45.0766C25.6032 46.5047 25.9532 47.8687 25.9532 49.4969V53.8109H24.7438C23.036 53.8109 21.6485 55.2 21.6485 56.9062V64.0187C21.6485 65.7281 23.0376 67.1187 24.7438 67.1187H52.8563C54.5657 67.1187 55.9563 65.7281 55.9563 64.0187V56.9062C55.9563 55.1984 54.5657 53.8109 52.8563 53.8109H51.6516V50.1656C51.6516 48.1547 52.1954 46.4578 53.361 44.8266L53.9391 44.0219C54.7891 42.8312 55.3376 41.6687 55.7188 40.2531L58.1594 31.1391C58.5516 29.675 58.3501 28.1437 57.5891 26.8266C57.2907 26.3094 56.9204 25.8516 56.4922 25.4594ZM51.2344 16.6547C52.7563 16.6547 53.9938 17.8906 53.9938 19.4094V24.1344L48.4751 22.6562V19.4109C48.4751 17.8906 49.7126 16.6547 51.2344 16.6547ZM40.4626 17.2312C40.4626 15.7125 41.7001 14.4766 43.2219 14.4766C44.7407 14.4766 45.9766 15.7125 45.9766 17.2312V21.9875L44.4047 21.5656C43.0235 21.1953 41.6204 21.4141 40.4626 22.0687V17.2312ZM32.4501 19.4109C32.4501 17.8922 33.686 16.6562 35.2047 16.6562C36.7266 16.6562 37.9641 17.8922 37.9641 19.4109V25.2953C37.7485 26.1031 37.7313 26.9328 37.9032 27.7297C37.6391 28.9922 36.5157 29.9219 35.2047 29.9219C33.686 29.9219 32.4501 28.6844 32.4501 27.1625V19.4109ZM24.4344 21.0406C24.4344 19.5219 25.6719 18.2859 27.1938 18.2859C28.7157 18.2859 29.9532 19.5219 29.9532 21.0406V28.7922C29.9532 30.3141 28.7157 31.5516 27.1938 31.5516C25.6719 31.5516 24.4344 30.3141 24.4344 28.7922V21.0406ZM53.4579 56.9078V64.0203C53.4579 64.3469 53.1813 64.6219 52.8563 64.6219H24.7438C24.4204 64.6219 24.1454 64.3469 24.1454 64.0203V56.9078C24.1454 56.5844 24.4188 56.3094 24.7438 56.3094H52.8563C53.1813 56.3094 53.4579 56.5828 53.4579 56.9078ZM55.7454 30.4922L53.3047 39.6062C53.0016 40.7344 52.5813 41.6219 51.9063 42.5687L51.3282 43.3734C49.8626 45.4234 49.1516 47.6453 49.1516 50.1672V53.8125H28.4516V49.4984C28.4516 47.4531 27.9922 45.6672 27.0079 43.8734L25.5688 41.2562C24.7844 39.8281 24.4344 38.4641 24.4344 36.8344V33.2641C25.2376 33.7609 26.1829 34.0484 27.1938 34.0484C29.2204 34.0484 30.9829 32.8953 31.8594 31.2094C32.7688 31.9641 33.936 32.4172 35.2063 32.4172C36.8751 32.4172 38.3876 31.625 39.3563 30.3812C39.9969 31.0172 40.7938 31.4797 41.686 31.7187L46.7563 33.0781L45.7329 36.9031H45.686C40.8016 36.9031 36.8282 40.8766 36.8282 45.7609C36.8282 46.4516 37.3876 47.0094 38.0766 47.0094C38.7657 47.0094 39.3251 46.45 39.3251 45.7609C39.3251 42.2531 42.1782 39.4 45.686 39.4H46.6907C47.2563 39.4 47.7516 39.0203 47.8969 38.4734L49.4922 32.5156C49.6704 31.85 49.2751 31.1656 48.6094 30.9859L42.3329 29.3031C41.6251 29.1125 41.0313 28.6547 40.661 28.0141C40.2907 27.3734 40.1922 26.6312 40.3813 25.925C40.7751 24.4547 42.2907 23.5797 43.7594 23.9734L53.4938 26.5828C54.3141 26.8031 55.0001 27.3312 55.4266 28.0703C55.8516 28.8141 55.9657 29.6719 55.7454 30.4922ZM79.8891 43.1969C79.5954 42.2875 78.7547 41.675 77.7938 41.675L73.0704 41.6844L71.6188 37.1922C71.3251 36.2797 70.4844 35.6656 69.5266 35.6656C68.5688 35.6656 67.7282 36.2781 67.4344 37.1906L65.9829 41.6844L61.2579 41.675C60.3079 41.675 59.4657 42.2812 59.161 43.1969C58.8657 44.1109 59.1922 45.1016 59.9672 45.6547L63.7938 48.4219L62.3251 52.9187C62.0282 53.8297 62.3485 54.8156 63.1235 55.375C63.8954 55.9391 64.9329 55.9391 65.7094 55.3734L69.5266 52.5891L73.3391 55.3703C73.7282 55.6562 74.1829 55.8 74.6376 55.8C75.0907 55.8 75.5422 55.6578 75.9297 55.375C76.7047 54.8156 77.0251 53.8312 76.7282 52.9187L75.2594 48.4234L79.0797 45.6594C79.8672 45.0969 80.1907 44.1031 79.8891 43.1969ZM73.6157 46.5297C72.836 47.0969 72.5172 48.0875 72.8172 48.9906L74.0641 52.8078L70.8251 50.4453C70.436 50.1594 69.9797 50.0156 69.5251 50.0156C69.0719 50.0156 68.6172 50.1578 68.2329 50.4422L64.9891 52.8078L66.2376 48.9859C66.5297 48.0781 66.2094 47.0906 65.436 46.5281L62.1844 44.175L66.1876 44.1828H66.211C67.1641 44.1828 67.9985 43.5734 68.2922 42.6625L69.5266 38.8406L70.761 42.6609C71.0547 43.5734 71.8891 44.1828 72.8329 44.1828H72.8563L76.8704 44.175L73.6157 46.5297ZM18.7407 41.675L14.0172 41.6844L12.5657 37.1922C12.2719 36.2797 11.4313 35.6656 10.4735 35.6656C9.51568 35.6656 8.67505 36.2781 8.3813 37.1906L6.92974 41.6844L2.20474 41.675C1.25318 41.675 0.412554 42.2812 0.107867 43.1969C-0.187446 44.1125 0.139117 45.1016 0.914117 45.6547L4.74068 48.4219L3.27193 52.9187C2.97505 53.8297 3.29537 54.8156 4.07037 55.375C4.84224 55.9391 5.87818 55.9391 6.6563 55.3734L10.4735 52.5891L14.286 55.3703C14.6751 55.6562 15.1297 55.8 15.5844 55.8C16.0376 55.8 16.4891 55.6578 16.8766 55.375C17.6516 54.8156 17.9719 53.8312 17.6751 52.9187L16.2063 48.4234L20.0266 45.6594C20.8141 45.0969 21.136 44.1031 20.8344 43.1969C20.5422 42.2875 19.7001 41.675 18.7407 41.675ZM14.561 46.5297C13.7813 47.0969 13.4626 48.0875 13.7626 48.9906L15.0094 52.8078L11.7704 50.4453C11.3813 50.1594 10.9251 50.0156 10.4704 50.0156C10.0172 50.0156 9.56255 50.1578 9.17818 50.4422L5.93443 52.8078L7.18287 48.9859C7.47505 48.0781 7.15474 47.0906 6.3813 46.5281L3.12974 44.175L7.13287 44.1828C8.09068 44.1937 8.94224 43.5812 9.23755 42.6625L10.4719 38.8406L11.7063 42.6609C12.0001 43.5734 12.8344 44.1828 13.7782 44.1828H13.8016L17.8157 44.175L14.561 46.5297ZM38.7485 6.65937V2.12812C38.7485 1.4375 39.3079 0.879684 39.9969 0.879684C40.6876 0.879684 41.2454 1.43906 41.2454 2.12812V6.65937C41.2454 7.35 40.686 7.90781 39.9969 7.90781C39.3079 7.90781 38.7485 7.34843 38.7485 6.65937ZM50.361 9.09843L52.6282 5.175C52.9735 4.57812 53.7376 4.37343 54.3344 4.71875C54.9313 5.06406 55.136 5.82812 54.7907 6.425L52.5235 10.3484C52.2922 10.7484 51.8719 10.9734 51.4407 10.9734C51.2282 10.9734 51.0141 10.9187 50.8172 10.8062C50.2204 10.4594 50.0157 9.69687 50.361 9.09843ZM59.8188 15.5219C59.3876 15.5219 58.9672 15.2969 58.736 14.8969C58.3907 14.3 58.5969 13.5359 59.1938 13.1906L63.1172 10.9281C63.7141 10.5828 64.4782 10.7891 64.8235 11.3859C65.1688 11.9828 64.9626 12.7469 64.3657 13.0922L60.4422 15.3547C60.2454 15.4672 60.0313 15.5219 59.8188 15.5219ZM25.2079 6.425C24.8626 5.82812 25.0672 5.06406 25.6641 4.71875C26.261 4.37343 27.0251 4.57812 27.3704 5.175L29.6376 9.09843C29.9829 9.69531 29.7782 10.4594 29.1813 10.8047C28.9844 10.9187 28.7688 10.9719 28.5579 10.9719C28.1266 10.9719 27.7063 10.7484 27.4751 10.3469L25.2079 6.425ZM21.2641 14.8969C21.0329 15.2984 20.6126 15.5219 20.1813 15.5219C19.9704 15.5219 19.7547 15.4687 19.5579 15.3547L15.6329 13.0922C15.036 12.7469 14.8297 11.9844 15.1751 11.3859C15.5204 10.7875 16.2829 10.5828 16.8813 10.9281L20.8063 13.1906C21.4032 13.5359 21.6079 14.2984 21.2641 14.8969Z" fill="white"/>
</svg>
