<svg width="80" height="66" viewBox="0 0 80 66" fill="none" xmlns="http://www.w3.org/2000/svg">
<path d="M31.1707 45.5456C31.1707 45.5456 31.1707 45.5453 31.1707 45.5451L29.9273 43.3914C28.7629 41.3748 27.2617 39.9289 25.2026 38.8411L14.8262 33.3591C14.1651 33.0098 13.4822 32.809 12.8062 32.7333L8.63356 13.0084C8.20152 10.967 6.39981 9.73452 4.2534 10.0136C2.36277 10.2584 0.511367 11.7722 0.630586 14.1911L1.91996 40.3592C2.11231 44.2622 4.64012 46.2028 7.56715 48.45C9.77606 50.1458 12.2789 52.067 14.3981 55.2644L19.9234 64.7511C20.0975 65.05 20.4115 65.2169 20.7343 65.2169C20.8934 65.2169 21.0547 65.1762 21.2023 65.0911L36.3304 56.3569C36.7789 56.098 36.9325 55.5247 36.6736 55.0762L31.1709 45.5455L31.1707 45.5456ZM8.70887 46.9628C5.94168 44.8383 3.94215 43.3033 3.79262 40.267L2.50324 14.0989C2.43668 12.748 3.45527 12.0075 4.49434 11.873C4.60184 11.8589 4.71293 11.8515 4.8259 11.8515C5.64684 11.8515 6.55574 12.2455 6.79918 13.3965L10.9117 32.8372C9.32043 33.1906 7.95402 34.1839 7.27981 35.4394C6.33684 37.1955 6.96996 39.0081 8.89246 40.0573L18.7775 45.4519C19.232 45.6998 19.8014 45.5326 20.0495 45.078C20.2975 44.6236 20.1303 44.0539 19.6756 43.8059L9.79059 38.4114C8.77527 37.8573 8.48621 37.1558 8.93152 36.3264C9.40324 35.4481 10.5959 34.6473 11.9671 34.575C12.0307 34.5798 12.0957 34.5783 12.1612 34.5697H12.1682C12.7487 34.5697 13.3561 34.703 13.9501 35.0166L24.3265 40.4986C26.0597 41.4142 27.3232 42.6312 28.3032 44.3287L29.0781 45.6708L15.4743 53.525C13.3012 50.4906 10.8714 48.6226 8.70887 46.9625V46.9628ZM21.0734 63.0006L16.4782 55.1108L30.0156 47.2948L34.5807 55.2019L21.0734 63.0005V63.0006ZM75.7467 10.0136C73.6009 9.73577 71.7986 10.9669 71.3665 13.0084L67.1939 32.7333C66.5181 32.8092 65.8348 33.0098 65.1739 33.3591L54.7975 38.8411C52.7384 39.9289 51.237 41.3748 50.0729 43.3914L48.83 45.5442C48.83 45.5442 48.8295 45.545 48.8292 45.5453C48.8289 45.5456 48.8289 45.5461 48.8286 45.5464L43.3265 55.0762C43.2023 55.2915 43.1686 55.5475 43.2329 55.7876C43.2973 56.0278 43.4543 56.2326 43.6697 56.357L58.7978 65.0912C58.9454 65.1764 59.1065 65.217 59.2657 65.217C59.5886 65.217 59.9026 65.0501 60.0767 64.7512L65.6018 55.2645C67.7211 52.0673 70.224 50.1458 72.4328 48.4501C75.3598 46.203 77.8876 44.2622 78.08 40.3594L79.3693 14.1912C79.4886 11.7723 77.6372 10.2586 75.7465 10.0137L75.7467 10.0136ZM58.9267 63.0005L45.4192 55.2019L49.9843 47.2948L63.5217 55.1108L58.9267 63.0006V63.0005ZM77.4968 14.0989L76.2075 40.267C76.0578 43.3033 74.0584 44.8383 71.2912 46.9628C69.1287 48.623 66.6989 50.4909 64.5257 53.5253L50.922 45.6711L51.6968 44.329C52.6767 42.6317 53.9403 41.4147 55.6734 40.4989L66.0498 35.0169C66.6464 34.7015 67.255 34.5666 67.8389 34.57C67.9042 34.5787 67.9692 34.5801 68.0328 34.5753C69.4039 34.6478 70.597 35.4484 71.0686 36.3267C71.5139 37.1561 71.2248 37.8576 70.2095 38.4117L60.3245 43.8062C59.87 44.0542 59.7026 44.6237 59.9506 45.0783C60.1986 45.5326 60.7682 45.7 61.2226 45.4522L71.1076 40.0576C73.0303 39.0084 73.6632 37.1959 72.7203 35.4397C72.0461 34.1841 70.6798 33.1906 69.0884 32.8375L73.2009 13.3969C73.4779 12.0875 74.6154 11.7572 75.5056 11.8733C76.5445 12.0078 77.5632 12.7484 77.4967 14.0992L77.4968 14.0989ZM49.8596 33.003C50.0536 33.003 50.247 32.9428 50.4107 32.8239C50.7161 32.602 50.8586 32.2187 50.7723 31.8512L48.27 21.1819L56.5657 14.0209C56.8515 13.7744 56.9614 13.3805 56.8448 13.0215C56.7282 12.6626 56.4078 12.4087 56.0317 12.3772L45.1112 11.46L40.8643 1.35733C40.7181 1.00936 40.3775 0.783112 40.0001 0.783112C39.6228 0.783112 39.2822 1.00936 39.1359 1.35733L34.889 11.46L23.9686 12.3772C23.5925 12.4087 23.272 12.6626 23.1553 13.0215C23.0387 13.3806 23.1487 13.7744 23.4343 14.0209L31.7301 21.1819L29.2278 31.8512C29.1415 32.2187 29.2842 32.602 29.5893 32.8239C29.895 33.0458 30.3032 33.0626 30.6261 32.8672L40 27.1901L49.374 32.8672C49.5237 32.9578 49.6918 33.0028 49.8595 33.0028L49.8596 33.003ZM40.4857 25.2923C40.1875 25.1116 39.8132 25.1114 39.5145 25.2923L31.5626 30.1081L33.6853 21.0572C33.765 20.7173 33.6493 20.3616 33.3851 20.1334L26.3478 14.0587L35.6117 13.2808C35.9595 13.2515 36.2623 13.0315 36.3975 12.71L40.0001 4.13967L43.6028 12.71C43.7381 13.0317 44.0407 13.2517 44.3886 13.2808L53.6525 14.0587L46.615 20.1334C46.3507 20.3616 46.2351 20.7173 46.3148 21.0572L48.4376 30.1081L40.4856 25.2923H40.4857ZM20.6904 27.2994C20.4431 26.8445 20.6112 26.2751 21.0659 26.0278L26.3631 23.1464C26.8181 22.899 27.3873 23.0672 27.6347 23.5219C27.882 23.9767 27.7139 24.5461 27.2592 24.7934L21.962 27.6748C21.8197 27.7522 21.6661 27.7889 21.5148 27.7889C21.1825 27.7889 20.8604 27.6117 20.6904 27.2992V27.2994ZM58.6759 27.2994C58.5059 27.6119 58.184 27.789 57.8515 27.789C57.7001 27.789 57.5467 27.7523 57.4043 27.675L52.1072 24.7936C51.6523 24.5462 51.4842 23.9769 51.7317 23.522C51.979 23.0672 52.5481 22.8992 53.0032 23.1465L58.3004 26.028C58.7553 26.2753 58.9234 26.8445 58.6759 27.2994ZM20.6903 4.96796C20.9376 4.51311 21.5068 4.34514 21.9617 4.59249L27.2589 7.47374C27.7137 7.72108 27.8818 8.29045 27.6345 8.7453C27.4645 9.0578 27.1426 9.23499 26.8101 9.23499C26.6587 9.23499 26.5053 9.19827 26.3631 9.12092L21.0659 6.23967C20.6111 5.99233 20.4429 5.4228 20.6903 4.96796ZM51.7315 8.7453C51.4842 8.29045 51.6523 7.72108 52.1072 7.47374L57.4043 4.59249C57.859 4.34499 58.4286 4.51327 58.6757 4.96796C58.9231 5.4228 58.755 5.99217 58.3001 6.23952L53.0029 9.12077C52.8607 9.19811 52.7072 9.23483 52.5559 9.23483C52.2236 9.23483 51.9015 9.0578 51.7315 8.7453Z" fill="white"/>
</svg>
