<svg width="72" height="68" viewBox="0 0 72 68" fill="none" xmlns="http://www.w3.org/2000/svg">
<path d="M71.5022 39.8722L61.801 23.0692C61.3666 22.3167 60.6625 21.7777 59.8188 21.5516C58.9749 21.3258 58.0958 21.4403 57.3432 21.8747L51.8155 25.0661C51.063 25.5005 50.5241 26.2045 50.298 27.0484C50.1239 27.698 50.1538 28.3677 50.3741 28.9852C45.5475 30.3514 41.3446 29.7214 38.5466 29.1053C34.2203 28.1531 32.1411 29.1062 29.2278 31.7459L21.6105 29.0248C21.8439 28.3964 21.88 27.7119 21.7024 27.0484C21.4763 26.2047 20.9374 25.5006 20.1849 25.0661L14.6572 21.8747C13.9046 21.4402 13.0255 21.3256 12.1816 21.5516C11.3378 21.7777 10.6338 22.3166 10.1992 23.0692L0.497842 39.8722C-0.401846 41.4306 0.133936 43.4303 1.69237 44.33L7.22003 47.5214C7.72034 47.8103 8.27659 47.9578 8.84128 47.9578C9.12581 47.9578 9.41269 47.9205 9.6955 47.8445C10.5394 47.6184 11.2433 47.0795 11.6778 46.3269L11.851 46.0269L16.6327 51.9983L16.3239 52.4373C14.9521 54.3877 15.7378 56.4659 17.223 57.5108C17.9041 57.9902 18.7403 58.26 19.5777 58.2183C19.3789 58.9822 19.4443 59.7725 19.7832 60.5036C20.353 61.7327 21.593 62.6048 22.9424 62.7259C23.4658 62.7731 23.9735 62.7019 24.4439 62.5233C24.5963 63.5283 25.2013 64.4137 26.0171 64.9875C27.2044 65.8225 28.8619 66.0136 30.18 65.0612C30.2241 65.2003 30.2775 65.3378 30.3403 65.4733C30.9102 66.7022 32.1503 67.5745 33.4997 67.6955C33.6047 67.705 33.7089 67.7095 33.8125 67.7095C34.9514 67.7095 35.9936 67.1453 36.708 66.1298L37.5977 64.865L41.271 67.0039C41.9155 67.3791 42.5542 67.5428 43.156 67.5428C44.4778 67.5428 45.6205 66.7519 46.2485 65.6736C46.665 64.9587 46.86 64.1091 46.7539 63.2827C48.3241 63.565 49.7246 62.7058 50.4458 61.4675C50.8427 60.7861 51.0385 59.9825 50.9642 59.1931C51.8535 59.4345 52.7642 59.3272 53.5661 58.8683C54.7419 58.1952 55.5047 56.885 55.5097 55.5303C55.5127 54.71 55.2324 53.952 54.7155 53.3347C55.4861 53.0187 56.128 52.4298 56.5438 51.715C57.273 50.4614 57.3202 48.7952 56.2586 47.5634L59.9482 45.6794L60.3221 46.3269C60.7566 47.0794 61.4605 47.6184 62.3044 47.8445C62.5872 47.9203 62.8739 47.9578 63.1586 47.9578C63.7233 47.9578 64.2796 47.8103 64.7799 47.5214L70.3077 44.33C71.866 43.4303 72.4019 41.4306 71.5022 39.8722ZM10.3247 45.5456C10.0989 45.9369 9.7319 46.2172 9.29128 46.3353C8.85034 46.4533 8.39237 46.3939 8.00144 46.1683L2.47378 42.9769C1.66159 42.508 1.38237 41.4656 1.85128 40.6534L11.5525 23.8505C11.7783 23.4594 12.1453 23.1789 12.5861 23.0608C12.7344 23.0211 12.8846 23.0014 13.0335 23.0014C13.3274 23.0014 13.6164 23.078 13.8761 23.2278L19.4038 26.4192C19.7949 26.645 20.0752 27.012 20.1933 27.4527C20.3113 27.8933 20.2521 28.3514 20.0263 28.7425L10.3247 45.5456ZM18.1221 56.2331C17.2703 55.6339 16.7792 54.5058 17.6017 53.3366L20.4725 49.2553C21.2947 48.0864 22.5222 48.1669 23.3736 48.7653C24.2255 49.3639 24.7174 50.4914 23.8966 51.6602L22.6099 53.4895L21.0239 55.7444C20.2013 56.9136 18.9738 56.832 18.1221 56.2331ZM23.0821 61.1697C22.291 61.0989 21.5349 60.567 21.2007 59.8464C20.9919 59.3961 20.8658 58.685 21.4505 57.8537L22.3019 56.6433L23.8878 54.3884L26.3174 50.9345C27.14 49.765 28.3678 49.8458 29.2196 50.4452C30.0714 51.0444 30.5627 52.1725 29.74 53.3419L29.1299 54.2092L25.1169 59.9144L24.873 60.2611C24.2885 61.0925 23.5767 61.2152 23.0821 61.1697ZM29.818 63.2202C28.9953 64.3894 27.7678 64.3086 26.916 63.7095C26.0642 63.1105 25.573 61.9828 26.395 60.8134L30.408 55.1083C31.2308 53.9402 32.4582 54.0216 33.3094 54.6208C34.161 55.22 34.6519 56.3481 33.8296 57.5172L32.1708 59.8755C32.1702 59.8762 32.1697 59.8772 32.1691 59.878L30.8207 61.795L29.818 63.2202ZM35.4302 65.2306C34.8455 66.0617 34.1336 66.1842 33.6392 66.1391C32.8482 66.0683 32.0921 65.5364 31.7578 64.8158C31.5491 64.3655 31.4228 63.6544 32.0077 62.8231L32.0969 62.6962L32.0988 62.6936L33.4472 60.7766C34.27 59.6072 35.4975 59.6884 36.3491 60.2875C37.201 60.8867 37.6922 62.0147 36.8697 63.1839L35.4302 65.2306ZM55.1935 50.9294C54.6702 51.8291 53.5896 52.4158 52.3541 51.6981L47.3011 48.7561C46.9282 48.5392 46.45 48.6653 46.233 49.0383C46.0158 49.4111 46.1421 49.8894 46.515 50.1066L51.568 53.0486C51.5682 53.0487 51.5685 53.0487 51.5686 53.0489C51.5688 53.0491 51.5686 53.0489 51.5688 53.0491L52.8892 53.818C53.7675 54.3292 53.9496 55.0283 53.9477 55.5245C53.9447 56.3189 53.4796 57.1177 52.7903 57.5123C52.3596 57.7587 51.6617 57.9455 50.7838 57.4341L49.1514 56.4836C49.1502 56.483 49.1489 56.4822 49.1478 56.4814H49.1477L49.1475 56.4812L44.0449 53.5102C43.6721 53.2931 43.1936 53.4194 42.9767 53.7923C42.7596 54.1652 42.8858 54.6434 43.2588 54.8606L48.361 57.8314C48.361 57.8314 48.3611 57.8314 48.3611 57.8316C48.3611 57.8316 48.3613 57.8316 48.3613 57.8317L48.3622 57.8322C49.5963 58.552 49.62 59.7817 49.0961 60.6811C48.5721 61.5806 47.4905 62.1664 46.2547 61.4472L44.9542 60.69C44.953 60.6892 44.9517 60.6884 44.9505 60.6878L44.9502 60.6875C44.9499 60.6873 44.9496 60.6873 44.9494 60.6872L40.7885 58.2644C40.4155 58.0469 39.9374 58.1736 39.7202 58.5464C39.503 58.9192 39.6292 59.3975 40.0022 59.6145L44.1639 62.0378C44.1639 62.038 44.1641 62.038 44.1642 62.0381L44.1667 62.0395C45.3989 62.7595 45.4225 63.9884 44.8989 64.8873C44.3749 65.7872 43.2932 66.3728 42.0577 65.6537L38.4632 63.5606C39.3736 61.7716 38.6016 59.962 37.2483 59.0102C36.6466 58.5867 35.9242 58.3289 35.1863 58.3014C36.4488 56.3852 35.6649 54.3677 34.2092 53.3433C33.4832 52.8322 32.5808 52.5617 31.6882 52.6472C31.9122 51.2381 31.2013 49.9287 30.1192 49.1675C28.8488 48.2736 27.0397 48.1172 25.6844 49.3109C25.4196 48.5737 24.9105 47.9352 24.2728 47.487C22.7878 46.4436 20.5666 46.4067 19.1952 48.3562L17.5692 50.6678L12.69 44.5747L20.8638 30.4172L27.9511 32.9491C27.5449 33.3427 27.1194 33.7616 26.6663 34.208C26.1014 34.7645 25.5172 35.34 24.8658 35.9709C24.723 36.1092 24.6383 36.2966 24.6289 36.495L24.298 43.4622C24.2274 44.9487 24.8571 45.6662 25.3977 46.0064C26.3977 46.6352 27.8833 46.4777 29.5808 45.5611C31.0186 44.785 31.856 42.9961 32.6657 41.2661C32.8555 40.8603 33.0367 40.4731 33.2189 40.1153C33.371 40.0441 33.5227 39.972 33.6744 39.9C35.6335 38.97 37.3253 38.167 38.9989 39.133L54.4574 48.0809C55.6919 48.7998 55.7168 50.0295 55.1935 50.9294ZM54.8733 46.5164L39.7805 37.78C37.3958 36.4033 35.0625 37.5109 33.0039 38.4881C32.7766 38.5961 32.5489 38.7042 32.3208 38.8095C32.1657 38.8811 32.0382 39.0016 31.958 39.1523C31.7166 39.6069 31.49 40.0911 31.25 40.6034C30.5805 42.0337 29.8217 43.655 28.8382 44.1861C27.4874 44.9152 26.5888 44.9095 26.2292 44.6837C25.8877 44.4689 25.8389 43.9411 25.8582 43.5361L26.1744 36.8775C26.7424 36.3258 27.2599 35.8158 27.7624 35.3206C32.2167 30.9322 33.5608 29.6075 38.2105 30.6311C41.2391 31.298 45.8255 31.9791 51.1235 30.3942L59.166 44.3244L54.8733 46.5164ZM69.5266 42.9769L63.9988 46.1683C63.6077 46.3944 63.1496 46.4533 62.7089 46.3353C62.2683 46.2172 61.9013 45.9367 61.6753 45.5456L51.9741 28.7425C51.7483 28.3514 51.6889 27.8933 51.8071 27.4527C51.925 27.012 52.2055 26.645 52.5966 26.4192L58.1242 23.2278C58.3839 23.078 58.6728 23.0014 58.9669 23.0014C59.1158 23.0014 59.266 23.0211 59.4142 23.0608C59.8549 23.1789 60.2219 23.4594 60.4477 23.8505L70.1489 40.6534C70.618 41.4656 70.3388 42.508 69.5266 42.9769ZM43.408 11.5811L47.7749 4.01765C47.9907 3.64422 48.4683 3.51578 48.8421 3.73172C49.2158 3.9475 49.3438 4.42515 49.128 4.7989L44.7611 12.3623C44.6164 12.613 44.3538 12.7531 44.0838 12.7531C43.9513 12.7531 43.8169 12.7192 43.6939 12.6483C43.3203 12.4325 43.1924 11.9548 43.408 11.5811ZM35.2188 9.80547V1.07172C35.2188 0.640154 35.5686 0.290466 36 0.290466C36.4314 0.290466 36.7813 0.640154 36.7813 1.07172V9.80547C36.7813 10.237 36.4314 10.5867 36 10.5867C35.5686 10.5867 35.2188 10.237 35.2188 9.80547ZM49.6124 17.2134L57.1758 12.8467C57.5497 12.6312 58.0274 12.7589 58.243 13.1327C58.4588 13.5064 58.3308 13.9841 57.9571 14.1998L50.3936 18.5666C50.2705 18.6375 50.1363 18.6714 50.0036 18.6714C49.7336 18.6714 49.4711 18.5314 49.3264 18.2806C49.1107 17.9069 49.2386 17.4292 49.6124 17.2134ZM13.7571 13.1327C13.9728 12.7591 14.4505 12.6306 14.8242 12.8467L22.3877 17.2134C22.7613 17.4292 22.8894 17.9069 22.6736 18.2806C22.5289 18.5312 22.2663 18.6714 21.9963 18.6714C21.8638 18.6714 21.7294 18.6375 21.6064 18.5666L14.043 14.1998C13.6692 13.9841 13.5413 13.5062 13.7571 13.1327ZM22.8721 4.7989C22.6563 4.42515 22.7842 3.9475 23.158 3.73172C23.5319 3.51625 24.0096 3.6439 24.2252 4.01765L28.5919 11.5811C28.8077 11.9548 28.6797 12.4325 28.306 12.6483C28.1828 12.7192 28.0486 12.7531 27.9161 12.7531C27.646 12.7531 27.3835 12.6131 27.2388 12.3623L22.8721 4.7989Z" fill="white"/>
</svg>
