<svg width="100" height="94" viewBox="0 0 100 94" fill="none" xmlns="http://www.w3.org/2000/svg">
<path d="M98.4405 55.0742L85.1013 31.9702C84.504 30.9355 83.5359 30.1943 82.3758 29.8834C81.2154 29.5729 80.0067 29.7304 78.9718 30.3277L71.3713 34.7159C70.3366 35.3131 69.5956 36.2812 69.2847 37.4416C69.0454 38.3347 69.0864 39.2555 69.3893 40.1046C62.7528 41.9832 56.9737 41.1169 53.1265 40.2698C47.1779 38.9605 44.319 40.2711 40.3133 43.9007L29.8394 40.1591C30.1604 39.295 30.21 38.3538 29.9657 37.4416C29.6549 36.2814 28.9139 35.3133 27.8792 34.7159L20.2786 30.3277C19.2437 29.7302 18.035 29.5727 16.8747 29.8834C15.7145 30.1943 14.7464 30.9353 14.1489 31.9702L0.809502 55.0742C-0.427568 57.2171 0.309131 59.9667 2.45198 61.2037L10.0525 65.5919C10.7404 65.9892 11.5053 66.192 12.2817 66.192C12.673 66.192 13.0674 66.1406 13.4563 66.0362C14.6167 65.7253 15.5845 64.9843 16.182 63.9494L16.42 63.5369L22.9949 71.7476L22.5704 72.3513C20.6841 75.033 21.7645 77.8906 23.8066 79.3273C24.7431 79.9865 25.8929 80.3575 27.0443 80.3001C26.771 81.3505 26.8608 82.4372 27.3268 83.4424C28.1103 85.1324 29.8153 86.3316 31.6707 86.4982C32.3905 86.563 33.0885 86.4651 33.7354 86.2195C33.9449 87.6014 34.7767 88.8189 35.8984 89.6078C37.531 90.7559 39.8101 91.0187 41.6225 89.7092C41.6831 89.9004 41.7566 90.0895 41.8429 90.2757C42.6265 91.9655 44.3317 93.165 46.1871 93.3313C46.3315 93.3444 46.4748 93.3506 46.6172 93.3506C48.1832 93.3506 49.6162 92.5748 50.5985 91.1785L51.8218 89.4394L56.8726 92.3804C57.7588 92.8962 58.6371 93.1214 59.4644 93.1214C61.282 93.1214 62.8532 92.0338 63.7166 90.5512C64.2894 89.5683 64.5575 88.3999 64.4116 87.2636C66.5706 87.6519 68.4962 86.4704 69.488 84.7678C70.0337 83.8309 70.3029 82.7259 70.2008 81.6405C71.4235 81.9725 72.6758 81.8249 73.7784 81.1939C75.3951 80.2683 76.444 78.4669 76.4508 76.6042C76.4549 75.4762 76.0695 74.434 75.3588 73.5852C76.4184 73.1508 77.301 72.341 77.8727 71.3581C78.8753 69.6344 78.9402 67.3433 77.4806 65.6497L82.5537 63.0591L83.0678 63.9494C83.6653 64.9841 84.6332 65.7253 85.7935 66.0362C86.1824 66.1404 86.5766 66.192 86.9681 66.192C87.7445 66.192 88.5094 65.9892 89.1973 65.5919L96.798 61.2037C98.9407 59.9667 99.6776 57.2171 98.4405 55.0742ZM14.3215 62.8752C14.011 63.4132 13.5063 63.7986 12.9005 63.961C12.2942 64.1233 11.6645 64.0416 11.1269 63.7314L3.52642 59.3432C2.40966 58.6984 2.02573 57.2652 2.67048 56.1485L16.0097 33.0444C16.3201 32.5066 16.8248 32.121 17.4309 31.9586C17.6348 31.904 17.8412 31.8769 18.046 31.8769C18.4501 31.8769 18.8476 31.9822 19.2046 32.1882L26.8052 36.5764C27.3429 36.8869 27.7283 37.3915 27.8908 37.9974C28.053 38.6032 27.9716 39.2332 27.6611 39.7709L14.3215 62.8752ZM25.0428 77.5705C23.8717 76.7466 23.1964 75.1954 24.3274 73.5878L28.2747 67.976C29.4052 66.3688 31.093 66.4794 32.2637 67.3023C33.435 68.1254 34.1114 69.6757 32.9828 71.2827L31.2135 73.7981L29.0329 76.8985C27.9017 78.5062 26.2139 78.394 25.0428 77.5705ZM31.8628 84.3583C30.775 84.261 29.7354 83.5297 29.2759 82.5388C28.9888 81.9196 28.8155 80.9419 29.6194 79.7989L30.7901 78.1345L32.9707 75.0341L36.3114 70.285C37.4425 68.6769 39.1308 68.7879 40.3019 69.6121C41.4732 70.436 42.1487 71.9872 41.0175 73.5951L40.1785 74.7877L34.6607 82.6323L34.3253 83.109C33.5216 84.2522 32.543 84.4208 31.8628 84.3583ZM41.1247 87.1777C39.9936 88.7854 38.3058 88.6743 37.1344 87.8506C35.9633 87.0269 35.2878 85.4763 36.4181 83.8685L41.936 76.0239C43.0673 74.4177 44.7549 74.5296 45.9254 75.3536C47.0963 76.1775 47.7713 77.7287 46.6406 79.3361L44.3598 82.5788C44.359 82.5798 44.3583 82.5811 44.3575 82.5822L42.5034 85.2181L41.1247 87.1777ZM48.8415 89.9421C48.0375 91.0849 47.0587 91.2533 46.3789 91.1912C45.2912 91.0939 44.2516 90.3625 43.792 89.3717C43.505 88.7525 43.3314 87.7747 44.1355 86.6318L44.2582 86.4573L44.2608 86.4537L46.1149 83.8178C47.2463 82.2099 48.9341 82.3216 50.105 83.1453C51.2763 83.9692 51.9518 85.5202 50.8208 87.1279L48.8415 89.9421ZM76.016 70.2779C75.2965 71.5149 73.8106 72.3217 72.1118 71.3349L65.164 67.2896C64.6512 66.9914 63.9938 67.1648 63.6953 67.6776C63.3967 68.1902 63.5703 68.8479 64.0831 69.1465L71.031 73.1918C71.0308 73.1916 71.0312 73.192 71.031 73.1918C71.0312 73.192 71.0318 73.1922 71.032 73.1925L72.8477 74.2497C74.0553 74.9527 74.3056 75.9139 74.303 76.5962C74.299 77.6885 73.6594 78.7868 72.7117 79.3295C72.1194 79.6683 71.1599 79.925 69.9527 79.2218L67.7082 77.9149C67.7065 77.9141 67.7048 77.913 67.7032 77.9119L60.6867 73.8265C60.174 73.528 59.5162 73.7016 59.218 74.2145C58.9194 74.7271 59.093 75.3847 59.6058 75.6833L66.6213 79.7682L66.623 79.7692C68.3199 80.759 68.3525 82.4499 67.6321 83.6865C66.9116 84.9233 65.4244 85.7288 63.7252 84.7399L61.9371 83.6987C61.9353 83.6977 61.9336 83.6966 61.9319 83.6957C61.9315 83.6955 61.9306 83.6951 61.9304 83.6949L56.2091 80.3635C55.6963 80.0644 55.0389 80.2387 54.7402 80.7513C54.4416 81.2639 54.6152 81.9216 55.128 82.22L60.8504 85.552C60.8502 85.5518 60.8504 85.5522 60.8504 85.552L60.8542 85.5543C62.5485 86.5443 62.5809 88.2341 61.861 89.4701C61.1404 90.7074 59.6531 91.5126 57.9543 90.5239L53.0118 87.6458C54.2637 85.1859 53.2022 82.6978 51.3414 81.389C50.514 80.8067 49.5208 80.4522 48.5061 80.4144C50.242 77.7796 49.1642 75.0055 47.1627 73.597C46.1643 72.8942 44.9236 72.5224 43.6962 72.6399C44.0043 70.7024 43.0267 68.902 41.5389 67.8553C39.792 66.6262 37.3046 66.4111 35.441 68.0525C35.0769 67.0389 34.3769 66.1608 33.5001 65.5447C31.4583 64.1099 28.404 64.0592 26.5184 66.7398L24.2827 69.9182L17.5738 61.5402L28.8127 42.0736L38.5578 45.555C37.9992 46.0961 37.4142 46.6721 36.7911 47.2859C36.0144 48.0512 35.2111 48.8425 34.3155 49.71C34.1191 49.9002 34.0026 50.1578 33.9898 50.4306L33.5347 60.0105C33.4376 62.0545 34.3034 63.0411 35.0468 63.5088C36.4218 64.3733 38.4645 64.1568 40.7986 62.8965C42.7756 61.8294 43.9269 59.3696 45.0402 56.9909C45.3013 56.4329 45.5505 55.9005 45.801 55.4085C46.01 55.3106 46.2187 55.2115 46.4273 55.1125C49.121 53.8337 51.4473 52.7297 53.7485 54.0578L75.0039 66.3613C76.7013 67.3498 76.7355 69.0406 76.016 70.2779ZM75.5758 64.21L54.8232 52.1975C51.5442 50.3045 48.3359 51.8275 45.5054 53.1712C45.1928 53.3196 44.8798 53.4683 44.5661 53.6131C44.3527 53.7115 44.1774 53.8771 44.0672 54.0845C43.7353 54.7094 43.4238 55.3752 43.0938 56.0797C42.1732 58.0464 41.1299 60.2756 39.7774 61.0059C37.9201 62.0083 36.6845 62.0006 36.1902 61.6901C35.7205 61.3947 35.6535 60.669 35.6799 60.1121L36.1148 50.9565C36.8957 50.1979 37.6073 49.4967 38.2982 48.8158C44.423 42.7817 46.2711 40.9603 52.6644 42.3677C56.8287 43.2847 63.135 44.2212 70.4197 42.042L81.4782 61.196L75.5758 64.21ZM95.724 59.3432L88.1233 63.7314C87.5855 64.0423 86.9556 64.1233 86.3498 63.961C85.7439 63.7986 85.2392 63.413 84.9286 62.8752L71.5893 39.7709C71.2789 39.2332 71.1973 38.6032 71.3597 37.9974C71.5219 37.3915 71.9075 36.8869 72.4453 36.5764L80.0458 32.1882C80.4029 31.9822 80.8001 31.8769 81.2045 31.8769C81.4092 31.8769 81.6157 31.904 81.8196 31.9586C82.4254 32.121 82.9301 32.5066 83.2405 33.0444L96.5798 56.1485C97.2247 57.2652 96.8408 58.6984 95.724 59.3432ZM59.811 16.174L65.8154 5.77427C66.1121 5.26079 66.7689 5.08419 67.2828 5.3811C67.7967 5.6778 67.9727 6.33458 67.676 6.84848L61.6715 17.2482C61.4726 17.5928 61.1114 17.7855 60.7402 17.7855C60.558 17.7855 60.3732 17.7389 60.2041 17.6414C59.6904 17.3447 59.5145 16.6879 59.811 16.174ZM48.5508 13.7325V1.7236C48.5508 1.1302 49.0318 0.649384 49.625 0.649384C50.2182 0.649384 50.6992 1.1302 50.6992 1.7236V13.7325C50.6992 14.3259 50.2182 14.8067 49.625 14.8067C49.0318 14.8067 48.5508 14.3259 48.5508 13.7325ZM68.342 23.9185L78.7417 17.9142C79.2558 17.618 79.9126 17.7935 80.2091 18.3074C80.5058 18.8213 80.3298 19.4781 79.8159 19.7748L69.4162 25.779C69.2469 25.8766 69.0623 25.9232 68.8799 25.9232C68.5087 25.9232 68.1478 25.7307 67.9488 25.3858C67.6521 24.8719 67.8281 24.2152 68.342 23.9185ZM19.0409 18.3074C19.3376 17.7937 19.9944 17.6171 20.5083 17.9142L30.908 23.9185C31.4217 24.2152 31.5979 24.8719 31.3012 25.3858C31.1023 25.7305 30.7411 25.9232 30.3699 25.9232C30.1877 25.9232 30.0029 25.8766 29.8338 25.779L19.4341 19.7748C18.9202 19.4781 18.7442 18.8211 19.0409 18.3074ZM31.5741 6.84848C31.2774 6.33458 31.4533 5.6778 31.9672 5.3811C32.4813 5.08483 33.1381 5.26036 33.4346 5.77427L39.4388 16.174C39.7355 16.6879 39.5596 17.3447 39.0457 17.6414C38.8764 17.7389 38.6918 17.7855 38.5096 17.7855C38.1382 17.7855 37.7772 17.593 37.5783 17.2482L31.5741 6.84848Z" fill="white"/>
</svg>
