<svg width="68" height="60" viewBox="0 0 68 60" fill="none" xmlns="http://www.w3.org/2000/svg">
<path fill-rule="evenodd" clip-rule="evenodd" d="M7.63171 37.3299C7.59426 37.8966 7.10259 38.3192 6.54275 38.2837L2.88387 38.0421C2.31971 38.004 1.89235 37.517 1.92979 36.9531C1.96723 36.388 2.45187 35.9582 3.01875 35.999L6.67763 36.2406C7.24179 36.2778 7.66899 36.7648 7.63171 37.3299ZM9.79571 26.5773C9.61331 27.1182 9.03027 27.3995 8.49923 27.22L5.02355 26.0502C4.48771 25.8702 4.19955 25.2904 4.37987 24.7538C4.56019 24.2189 5.14083 23.931 5.67667 24.111L9.15235 25.2808C9.68771 25.4608 9.97603 26.0408 9.79571 26.5773ZM62.9765 26.0501L59.5008 27.2198C58.9693 27.3995 58.3858 27.1173 58.204 26.5771C58.024 26.0406 58.3119 25.4605 58.8477 25.2806L62.3232 24.1109C62.8591 23.9309 63.4397 24.2173 63.62 24.7536C63.8005 25.2902 63.5123 25.8702 62.9765 26.0501ZM67.1733 49.087C67.1723 49.6526 66.7141 50.1098 66.1477 50.1093L62.4807 50.1024C61.9155 50.1024 61.4579 49.6424 61.4587 49.0776C61.4597 48.5125 61.9179 48.055 62.4843 48.0555L66.1514 48.0622C66.717 48.0635 67.1743 48.5222 67.1733 49.087ZM65.1162 38.0421L61.457 38.2837C60.8973 38.319 60.4059 37.8963 60.3683 37.3299C60.3309 36.7648 60.7583 36.2778 61.3221 36.2406L64.9813 35.999C65.5455 35.9609 66.0331 36.3896 66.0703 36.9531C66.1077 37.517 65.6807 38.004 65.1162 38.0421ZM9.45011 12.0699C9.80531 11.6307 10.4501 11.5622 10.8895 11.9173L13.7426 14.2208C14.4936 14.8282 14.0563 16.0414 13.0989 16.0414C12.8731 16.0414 12.6456 15.9666 12.4562 15.8136L9.60339 13.5101C9.16371 13.155 9.09539 12.5093 9.45011 12.0699ZM32.9763 5.62287V1.95583C32.9763 1.39103 33.4346 0.932312 33.9999 0.932312C34.5655 0.932312 35.0234 1.39087 35.0234 1.95583V5.62287C35.0234 6.18927 34.5655 6.64639 33.9999 6.64639C33.4347 6.64639 32.9763 6.18927 32.9763 5.62287ZM45.005 8.46143L46.2027 4.99519C46.3874 4.46143 46.9704 4.17759 47.5047 4.36175C48.0391 4.54751 48.3226 5.13007 48.1379 5.66383L46.9402 9.13039C46.7528 9.67183 46.1642 9.94479 45.6383 9.76367C45.1037 9.57935 44.8203 8.99663 45.005 8.46143ZM54.1043 15.6603C53.7491 15.2213 53.8175 14.5768 54.2573 14.2206L57.1104 11.9171C57.5499 11.5622 58.1946 11.6306 58.5498 12.0698C58.9047 12.5093 58.8362 13.1549 58.3963 13.5099L55.5435 15.8134C55.105 16.1677 54.4607 16.1029 54.1043 15.6603ZM6.54115 49.0776C6.54211 49.6424 6.08451 50.1024 5.51939 50.1024L1.85043 50.1093C1.28595 50.1093 0.827866 49.6523 0.826906 49.087C0.825946 48.5222 1.28323 48.0635 1.84867 48.0622L5.51763 48.0555C6.08211 48.0553 6.54003 48.5128 6.54115 49.0776ZM19.8626 5.66399C19.6779 5.13023 19.961 4.54751 20.4954 4.36191C21.0296 4.17791 21.6127 4.46159 21.7973 4.99535L22.9951 8.46159C23.2271 9.13327 22.7208 9.81967 22.0275 9.81967C21.6032 9.81967 21.2066 9.55343 21.06 9.13055L19.8626 5.66399ZM48.7682 44.7499C48.9959 45.3765 48.5709 46.0523 47.9082 46.1189L40.6997 46.8394C39.4103 46.9701 38.2032 46.3029 37.6235 45.1442L35.1923 40.2816C35.1256 40.1478 35.0211 40.0838 34.8725 40.0838H33.1277C32.9792 40.0838 32.8746 40.1478 32.8079 40.2816L30.3767 45.1442C29.7927 46.3123 28.5786 46.968 27.3007 46.8394L20.092 46.1189C19.4293 46.0523 19.0042 45.3765 19.232 44.7499L22.0559 36.9845C22.2495 36.4536 22.8368 36.1794 23.3679 36.3718C23.8991 36.5656 24.173 37.1523 23.9799 37.6845L21.6056 44.212L27.5043 44.8032C27.9546 44.848 28.3434 44.6326 28.5456 44.2285L30.9771 39.3661C31.3933 38.5338 32.1971 38.0366 33.1275 38.0366H34.8723C35.8027 38.0366 36.6071 38.5338 37.0229 39.3661L39.4544 44.2285C39.6567 44.6326 40.0456 44.8478 40.4962 44.8032L46.3946 44.212L44.0202 37.6845C43.8271 37.1523 44.1011 36.5656 44.6322 36.3718C45.1632 36.1794 45.7507 36.4538 45.9439 36.9845L48.7682 44.7499ZM54.7133 50.0737C55.1626 49.4718 55.2819 48.8032 55.0688 48.0827L50.6306 33.1046C49.9842 30.9238 48.2551 29.4201 46.0051 29.083C41.7051 28.4358 38.2746 27.8738 33.924 27.8738C29.6578 27.8738 26.092 28.4649 21.9947 29.083C19.7448 29.42 18.0157 30.9238 17.3693 33.1046L12.9312 48.0827C12.5 49.5398 13.5747 50.98 15.0941 50.98H31.5834C32.3514 50.98 32.9763 50.3549 32.9763 49.5864V45.9632C32.9763 45.3984 33.4346 44.9397 33.9999 44.9397C34.5655 44.9397 35.0234 45.3984 35.0234 45.9632V49.5864C35.0234 50.3547 35.6485 50.98 36.4167 50.98H52.9059C53.6562 50.98 54.2645 50.6757 54.7133 50.0737ZM46.3511 56.0746C46.3511 56.5958 45.9271 57.0202 45.4058 57.0202H22.5944C22.073 57.0202 21.6488 56.5958 21.6488 56.0746V53.0269H31.5835C32.5245 53.0269 33.3786 52.6477 34 52.0333C34.6218 52.6477 35.4757 53.0269 36.4168 53.0269H46.3512V56.0746H46.3511ZM27.2576 19.0848C27.2576 15.3672 30.2824 12.3414 34 12.3414C37.7179 12.3414 40.7426 15.3672 40.7426 19.0848C40.7426 22.8024 37.7179 25.8264 34 25.8264C30.2823 25.8264 27.2576 22.8024 27.2576 19.0848ZM52.5935 32.5232C51.7152 29.5592 49.3659 27.5161 46.309 27.0574C43.9306 26.7013 41.5754 26.3329 39.2829 26.1037C41.4112 24.4985 42.7896 21.9494 42.7896 19.0848C42.7896 14.2371 38.8466 10.2944 34 10.2944C29.1538 10.2944 25.2107 14.2371 25.2107 19.0848C25.2107 21.9467 26.5861 24.4931 28.7103 26.0981C26.4296 26.329 24.0551 26.7024 21.6914 27.0576C18.6346 27.5163 16.2847 29.5592 15.4067 32.5234L10.9687 47.5014C10.1493 50.2683 12.2099 53.027 15.0944 53.027H19.6019V56.0747C19.6019 57.7248 20.9447 59.0677 22.5946 59.0677H45.4059C47.056 59.0677 48.3983 57.7246 48.3983 56.0747V53.027H52.9061C55.7903 53.027 57.8511 50.2678 57.0317 47.5014L52.5935 32.5232Z" fill="white"/>
</svg>
