<svg width="56" height="48" viewBox="0 0 56 48" fill="none" xmlns="http://www.w3.org/2000/svg">
<path d="M30.6934 11.4767C30.6934 14.41 31.46 16.8733 32.9934 18.8667C34.08 20.24 35.5545 21.1422 37.4167 21.5733C39.25 22 40.9834 22.03 42.55 21.6667C43.0834 24.8333 42.2167 28.1867 40.0167 31.74C37.8123 35.2911 34.97 37.9611 31.49 39.75L36.76 47.3333C39.4267 46.0133 41.96 44.34 44.2934 42.3167C46.66 40.2933 48.76 37.9667 50.6267 35.3367C52.4934 32.7067 53.8934 29.7367 54.7934 26.37C55.6934 23.0033 55.9434 19.57 55.5134 16.0367C54.9534 11.37 53.4467 7.63667 50.9934 4.87C48.5423 2.06778 45.4889 0.666672 41.8334 0.666672C38.6167 0.666672 35.9467 1.63334 33.8334 3.59334C31.7423 5.51334 30.6978 8.14445 30.7 11.4867L30.6934 11.4767ZM0.280033 11.4767C0.280033 14.41 1.0467 16.8733 2.58004 18.8667C3.66892 20.2667 5.14337 21.1744 7.00337 21.59C8.87003 22.0011 10.5811 22.0256 12.1367 21.6633C12.67 24.7967 11.8367 28.1633 9.63004 31.73C7.43003 35.2633 4.59003 37.93 1.11003 39.73L6.3667 47.3333C9.03559 46.0133 11.5467 44.3411 13.9 42.3167C16.288 40.2631 18.409 37.9181 20.2134 35.3367C22.0667 32.7033 23.4467 29.7367 24.3467 26.37C25.2609 23.006 25.5067 19.4953 25.07 16.0367C24.5167 11.37 23.0167 7.63667 20.57 4.87C18.1256 2.08778 15.0778 0.696674 11.4267 0.696674C8.20448 0.69223 5.53559 1.66667 3.42003 3.62C1.32892 5.54 0.282257 8.17111 0.280033 11.5133V11.4767Z" fill="#3E5680"/>
</svg>
