<svg width="50" height="42" viewBox="0 0 50 42" fill="none" xmlns="http://www.w3.org/2000/svg">
<path d="M27.3566 10.0421C27.3566 12.6088 28.0275 14.7642 29.3691 16.5084C30.32 17.71 31.6101 18.4995 33.2396 18.8767C34.8437 19.25 36.3604 19.2763 37.7312 18.9584C38.1979 21.7292 37.4396 24.6634 35.5146 27.7725C33.5857 30.8797 31.0987 33.216 28.0537 34.7813L32.665 41.4167C34.9983 40.2617 37.215 38.7975 39.2566 37.0271C41.3275 35.2567 43.165 33.2209 44.7983 30.9196C46.4316 28.6184 47.6566 26.0196 48.4441 23.0738C49.2316 20.1279 49.4504 17.1238 49.0741 14.0321C48.5841 9.94877 47.2658 6.68211 45.1191 4.26127C42.9744 1.80933 40.3027 0.583355 37.1041 0.583355C34.2896 0.583355 31.9533 1.42919 30.1041 3.14419C28.2744 4.82419 27.3605 7.12641 27.3625 10.0509L27.3566 10.0421ZM0.744968 10.0421C0.744968 12.6088 1.4158 14.7642 2.75747 16.5084C3.71025 17.7334 5.00039 18.5277 6.62789 18.8913C8.26122 19.251 9.75844 19.2724 11.1195 18.9554C11.5862 21.6971 10.8571 24.6429 8.92622 27.7638C7.00122 30.8554 4.51622 33.1888 1.47122 34.7638L6.0708 41.4167C8.40608 40.2617 10.6033 38.7985 12.6625 37.0271C14.752 35.2302 16.6078 33.1784 18.1866 30.9196C19.8083 28.6154 21.0158 26.0196 21.8033 23.0738C22.6032 20.1302 22.8183 17.0584 22.4362 14.0321C21.9521 9.94877 20.6396 6.68211 18.4987 4.26127C16.3598 1.82683 13.693 0.609608 10.4983 0.609608C7.67886 0.605721 5.34358 1.45835 3.49247 3.16752C1.66275 4.84752 0.746914 7.14974 0.744968 10.0742V10.0421Z" fill="#B5D5EC"/>
</svg>
