<svg width="14" height="14" viewBox="0 0 14 14" fill="none" xmlns="http://www.w3.org/2000/svg">
<path d="M7 0.5C3.41031 0.5 0.5 3.41031 0.5 7C0.5 10.5897 3.41031 13.5 7 13.5C10.5897 13.5 13.5 10.5897 13.5 7C13.5 3.41031 10.5897 0.5 7 0.5ZM10 8H7C6.86739 8 6.74021 7.94732 6.64645 7.85355C6.55268 7.75979 6.5 7.63261 6.5 7.5V3C6.5 2.86739 6.55268 2.74021 6.64645 2.64645C6.74021 2.55268 6.86739 2.5 7 2.5C7.13261 2.5 7.25979 2.55268 7.35355 2.64645C7.44732 2.74021 7.5 2.86739 7.5 3V7H10C10.1326 7 10.2598 7.05268 10.3536 7.14645C10.4473 7.24021 10.5 7.36739 10.5 7.5C10.5 7.63261 10.4473 7.75979 10.3536 7.85355C10.2598 7.94732 10.1326 8 10 8Z" fill="#7CB89A"/>
</svg>
